<svg width="597" height="226" viewBox="0 0 597 226" fill="none" xmlns="http://www.w3.org/2000/svg">
<path d="M194.122 34.9478C194.122 28.5684 199.116 23.2589 205.142 23.2589C211.167 23.2589 215.964 17.989 215.964 11.57C215.964 5.15103 211.088 0 205.023 0C198.958 0 194.082 5.19065 194.082 11.57V34.9081L194.122 34.9478Z" fill="black"/>
<path d="M392.287 37.4048C392.287 31.0254 397.282 25.7159 403.347 25.7159C409.412 25.7159 414.169 20.446 414.169 14.027C414.169 7.60806 409.253 2.45703 403.228 2.45703C397.202 2.45703 392.287 7.64769 392.287 14.027V37.3652V37.4048Z" fill="black"/>
<path d="M194.677 60.5446C194.677 55.5125 190.514 51.3124 185.44 51.3124C180.366 51.3124 176.402 47.1519 176.402 42.0802C176.402 37.0084 180.485 32.9668 185.52 32.9668C190.554 32.9668 194.637 37.048 194.637 42.0802V60.505L194.677 60.5446Z" fill="black"/>
<path d="M392.842 63.0407C392.842 58.0086 388.68 53.8085 383.606 53.8085C378.531 53.8085 374.567 49.648 374.567 44.5763C374.567 39.5045 378.65 35.4629 383.685 35.4629C388.719 35.4629 392.802 39.5441 392.802 44.5763V63.0011L392.842 63.0407Z" fill="black"/>
<path d="M99.3006 91.2516C99.3006 83.525 92.9184 77.1457 85.1884 77.1457C77.4584 77.1457 71.3141 70.7663 71.3141 63.0398C71.3141 55.3132 77.5774 49.0527 85.3073 49.0527C93.0373 49.0527 99.3006 55.3132 99.3006 63.0398V91.2912V91.2516Z" fill="black"/>
<path d="M194.122 91.5699C194.122 83.8434 200.504 77.464 208.234 77.464C215.964 77.464 222.069 71.0847 222.069 63.3581C222.069 55.6316 215.805 49.3711 208.075 49.3711C200.345 49.3711 194.082 55.6316 194.082 63.3581V91.6095L194.122 91.5699Z" fill="black"/>
<path d="M298.377 91.2516C298.377 83.525 291.995 77.1457 284.265 77.1457C276.535 77.1457 270.431 70.7663 270.431 63.0398C270.431 55.3132 276.694 49.0527 284.424 49.0527C292.154 49.0527 298.417 55.3132 298.417 63.0398V91.2912L298.377 91.2516Z" fill="black"/>
<path d="M495.671 91.2516C495.671 83.525 489.288 77.1457 481.558 77.1457C473.828 77.1457 467.724 70.7663 467.724 63.0398C467.724 55.3132 473.987 49.0527 481.717 49.0527C489.447 49.0527 495.71 55.3132 495.71 63.0398V91.2912L495.671 91.2516Z" fill="black"/>
<path d="M392.287 94.027C392.287 86.3004 398.669 79.9211 406.399 79.9211C414.129 79.9211 420.234 73.5417 420.234 65.8152C420.234 58.0886 413.97 51.8281 406.24 51.8281C398.51 51.8281 392.247 58.0886 392.247 65.8152V94.0666L392.287 94.027Z" fill="black"/>
<path d="M99.1421 121.802C99.1421 116.77 103.304 112.57 108.378 112.57C113.452 112.57 117.417 108.41 117.417 103.338C117.417 98.2662 113.334 94.2246 108.299 94.2246C103.265 94.2246 99.1817 98.3058 99.1817 103.338V121.763L99.1421 121.802Z" fill="black"/>
<path d="M194.003 119.306C194.003 114.274 189.84 110.074 184.766 110.074C179.692 110.074 175.728 105.914 175.728 100.842C175.728 95.7701 179.811 91.7285 184.846 91.7285C189.88 91.7285 193.963 95.8097 193.963 100.842V119.267L194.003 119.306Z" fill="black"/>
<path d="M298.219 121.802C298.219 116.77 302.381 112.57 307.455 112.57C312.529 112.57 316.493 108.41 316.493 103.338C316.493 98.2662 312.41 94.2246 307.376 94.2246C302.342 94.2246 298.258 98.3058 298.258 103.338V121.763L298.219 121.802Z" fill="black"/>
<path d="M495.512 121.802C495.512 116.77 499.674 112.57 504.748 112.57C509.822 112.57 513.786 108.41 513.786 103.338C513.786 98.2662 509.703 94.2246 504.669 94.2246C499.634 94.2246 495.551 98.3058 495.551 103.338V121.763L495.512 121.802Z" fill="black"/>
<path d="M392.208 121.802C392.208 116.77 388.045 112.57 382.971 112.57C377.897 112.57 373.933 108.41 373.933 103.338C373.933 98.2662 378.016 94.2246 383.051 94.2246C388.085 94.2246 392.168 98.3058 392.168 103.338V121.763L392.208 121.802Z" fill="black"/>
<path d="M99.0627 150.687C99.0627 142.961 92.6805 136.581 84.9505 136.581C77.2205 136.581 71.0762 130.202 71.0762 122.475C71.0762 114.749 77.3394 108.488 85.0694 108.488C92.7994 108.488 99.0627 114.749 99.0627 122.475V150.727V150.687Z" fill="black"/>
<path d="M194.122 148.191C194.122 140.464 200.504 134.085 208.234 134.085C215.964 134.085 222.069 127.706 222.069 119.979C222.069 112.253 215.805 105.992 208.075 105.992C200.345 105.992 194.082 112.253 194.082 119.979V148.231L194.122 148.191Z" fill="black"/>
<path d="M298.14 150.687C298.14 142.961 291.757 136.581 284.027 136.581C276.297 136.581 270.193 130.202 270.193 122.475C270.193 114.749 276.456 108.488 284.186 108.488C291.916 108.488 298.179 114.749 298.179 122.475V150.727L298.14 150.687Z" fill="black"/>
<path d="M495.433 150.687C495.433 142.961 489.051 136.581 481.321 136.581C473.591 136.581 467.486 130.202 467.486 122.475C467.486 114.749 473.749 108.488 481.479 108.488C489.209 108.488 495.472 114.749 495.472 122.475V150.727L495.433 150.687Z" fill="black"/>
<path d="M392.287 150.687C392.287 142.961 398.669 136.581 406.399 136.581C414.129 136.581 420.234 130.202 420.234 122.475C420.234 114.749 413.97 108.488 406.24 108.488C398.51 108.488 392.247 114.749 392.247 122.475V150.727L392.287 150.687Z" fill="black"/>
<path d="M99.1421 180.564C99.1421 175.532 103.304 171.332 108.378 171.332C113.452 171.332 117.417 167.171 117.417 162.1C117.417 157.028 113.334 152.986 108.299 152.986C103.265 152.986 99.1817 157.068 99.1817 162.1V180.525L99.1421 180.564Z" fill="black"/>
<path d="M194.003 178.107C194.003 173.075 189.84 168.875 184.766 168.875C179.692 168.875 175.728 164.714 175.728 159.643C175.728 154.571 179.811 150.529 184.846 150.529C189.88 150.529 193.963 154.61 193.963 159.643V178.067L194.003 178.107Z" fill="black"/>
<path d="M298.219 180.564C298.219 175.532 302.381 171.332 307.455 171.332C312.529 171.332 316.493 167.171 316.493 162.1C316.493 157.028 312.41 152.986 307.376 152.986C302.342 152.986 298.258 157.068 298.258 162.1V180.525L298.219 180.564Z" fill="black"/>
<path d="M495.512 180.564C495.512 175.532 499.674 171.332 504.748 171.332C509.822 171.332 513.786 167.171 513.786 162.1C513.786 157.028 509.703 152.986 504.669 152.986C499.634 152.986 495.551 157.068 495.551 162.1V180.525L495.512 180.564Z" fill="black"/>
<path d="M392.208 180.564C392.208 175.532 388.045 171.332 382.971 171.332C377.897 171.332 373.933 167.171 373.933 162.1C373.933 157.028 378.016 152.986 383.051 152.986C388.085 152.986 392.168 157.068 392.168 162.1V180.525L392.208 180.564Z" fill="black"/>
<path d="M99.3005 63.002V219.554" stroke="black"/>
<path d="M194.399 41.6445V219.553" stroke="black"/>
<path d="M297.981 63.002V221.773" stroke="black"/>
<path d="M494.997 63.002V224.071" stroke="black"/>
<path d="M392.168 44.1016V221.772" stroke="black"/>
<path d="M0.753174 221.772C4.67763 217.889 12.4869 217.889 16.4113 221.772C20.3358 225.655 28.1451 225.655 32.0695 221.772C35.994 217.889 43.8032 217.889 47.7277 221.772C51.6522 225.655 59.4614 225.655 63.3859 221.772C67.3103 217.889 75.1196 217.889 79.044 221.772C82.9685 225.655 90.7778 225.655 94.7022 221.772C98.6267 217.889 106.436 217.889 110.36 221.772C114.285 225.655 122.094 225.655 126.019 221.772C129.943 217.889 137.752 217.889 141.677 221.772C145.601 225.655 153.41 225.655 157.335 221.772C161.259 217.889 169.069 217.889 172.993 221.772C176.918 225.655 184.727 225.655 188.651 221.772C192.576 217.889 200.385 217.889 204.309 221.772C208.234 225.655 216.043 225.655 219.968 221.772C223.892 217.889 231.701 217.889 235.626 221.772C239.55 225.655 247.36 225.655 251.284 221.772C255.208 217.889 263.018 217.889 266.942 221.772C270.867 225.655 278.676 225.655 282.6 221.772C286.525 217.889 294.334 217.889 298.258 221.772C302.183 225.655 309.992 225.655 313.917 221.772C317.841 217.889 325.65 217.889 329.575 221.772C333.499 225.655 341.309 225.655 345.233 221.772C349.157 217.889 356.967 217.889 360.891 221.772C364.816 225.655 372.625 225.655 376.549 221.772C380.474 217.889 388.283 217.889 392.208 221.772C396.132 225.655 403.941 225.655 407.866 221.772C411.79 217.889 419.599 217.889 423.524 221.772C427.448 225.655 435.258 225.655 439.182 221.772C443.107 217.889 450.916 217.889 454.84 221.772C458.765 225.655 466.574 225.655 470.498 221.772C474.423 217.889 482.232 217.889 486.157 221.772C490.081 225.655 497.89 225.655 501.815 221.772C505.739 217.889 513.548 217.889 517.473 221.772C521.397 225.655 529.207 225.655 533.131 221.772C537.056 217.889 544.865 217.889 548.789 221.772C552.714 225.655 560.523 225.655 564.447 221.772C568.372 217.889 576.181 217.889 580.106 221.772C584.03 225.655 591.839 225.655 595.764 221.772" stroke="black"/>
</svg>
