<svg width="1728" height="1117" viewBox="0 0 1728 1117" fill="none" xmlns="http://www.w3.org/2000/svg">
<rect width="1728" height="1117" fill="black"/>
<path d="M930.26 481.82H784.61V368.55L857.44 294.75L930.26 368.55V481.82Z" fill="#F8F5F0"/>
<path d="M857.44 481.82V806.08" stroke="#F8F5F0" stroke-miterlimit="10"/>
<path d="M796.69 466.52L857.32 417.63L918.19 466.72" fill="#F8F5F0"/>
<path d="M796.69 466.52L857.32 417.63L918.19 466.72" stroke="black" stroke-miterlimit="10"/>
<path d="M857.44 314.67V417.63" stroke="black" stroke-miterlimit="10"/>
<path d="M784.61 878.91C784.61 838.69 817.22 806.08 857.44 806.08C897.66 806.08 930.27 838.69 930.27 878.91V902.1H784.62V878.91H784.61Z" stroke="#F8F5F0" stroke-miterlimit="10"/>
<path d="M857.44 805.97C861.94 805.97 866.33 806.4 870.6 807.18C870.64 806.78 870.66 806.38 870.66 805.97C870.66 798.67 864.74 792.75 857.44 792.75C850.14 792.75 844.22 798.67 844.22 805.97C844.22 806.38 844.24 806.78 844.28 807.18C848.55 806.4 852.95 805.97 857.44 805.97V805.97Z" fill="#F8F5F0" stroke="#F8F5F0" stroke-miterlimit="10"/>
<path d="M930.26 878.38H784.61V908.74H930.26V878.38Z" fill="#F8F5F0" stroke="#F8F5F0" stroke-miterlimit="10"/>
<path d="M796.69 704.749C824.481 704.749 847.01 682.22 847.01 654.429C847.01 626.638 824.481 604.109 796.69 604.109C768.899 604.109 746.37 626.638 746.37 654.429C746.37 682.22 768.899 704.749 796.69 704.749Z" fill="#F8F5F0" stroke="#F8F5F0" stroke-miterlimit="10"/>
<path d="M961.25 745.02C1011.28 745.02 1051.84 704.461 1051.84 654.43C1051.84 604.398 1011.28 563.84 961.25 563.84C911.219 563.84 870.66 604.398 870.66 654.43C870.66 704.461 911.219 745.02 961.25 745.02Z" fill="#F8F5F0" stroke="#F8F5F0" stroke-miterlimit="10"/>
<path d="M941.05 495.67H773.83V370.83L837.49 297C849.13 287.61 865.75 287.61 877.4 297L941.06 370.83V495.67H941.05Z" fill="#F8F5F0"/>
<path d="M844.09 669.91C835.52 716.56 777.7 757.48 722.35 757.48C650.95 757.48 593.06 699.16 593.06 627.21C593.06 611.25 595.91 595.96 601.12 581.83C606.33 567.7 614.92 553.49 625.27 541.61L810.98 328.27" stroke="#F8F5F0" stroke-miterlimit="10"/>
<path d="M874.58 675.189C879.03 715.269 936.33 759.159 991.67 759.159C1063.07 759.159 1120.96 700.839 1120.96 628.889C1120.96 599.099 1110.48 568.259 1093.78 546.319L902.49 326.569" stroke="#F8F5F0" stroke-miterlimit="10"/>
<path d="M994.06 878.379H720.82V908.739H994.06V878.379Z" fill="#F8F5F0" stroke="#F8F5F0" stroke-miterlimit="10"/>
<path d="M518.34 276.329V167.319L448.14 276.329" stroke="#F8F5F0" stroke-miterlimit="10"/>
<path d="M518.34 225.779H480.69" stroke="#F8F5F0" stroke-miterlimit="10"/>
<path d="M518.34 276.329H494.22" stroke="#F8F5F0" stroke-miterlimit="10"/>
<path d="M429.32 276.329H466.97" stroke="#F8F5F0" stroke-miterlimit="10"/>
<path d="M1152.05 891.609V1000.62L1222.24 891.609" stroke="#F8F5F0" stroke-miterlimit="10"/>
<path d="M1152.05 942.149H1189.7" stroke="#F8F5F0" stroke-miterlimit="10"/>
<path d="M1152.05 891.609H1176.16" stroke="#F8F5F0" stroke-miterlimit="10"/>
<path d="M1203.42 891.609H1241.07" stroke="#F8F5F0" stroke-miterlimit="10"/>
<path d="M1058.68 505.22C1031.43 529 990.06 526.19 966.28 498.94C942.5 471.69 945.31 430.32 972.56 406.54" fill="#F8F5F0"/>
<path d="M720.82 431.84V366.15C720.82 359.04 726.63 353.3 733.74 353.38C740.74 353.46 746.37 359.15 746.37 366.15V755.01" stroke="#F8F5F0" stroke-miterlimit="10"/>
<path d="M746.37 755.01C738.42 756.62 730.36 757.47 722.35 757.47C650.95 757.47 593.06 699.15 593.06 627.2C593.06 611.24 595.91 595.95 601.12 581.82C606.57 567.03 614.92 553.48 625.27 541.6L746.37 402.49V755.02V755.01Z" fill="#F8F5F0"/>
<path d="M972.56 406.54C999.81 382.76 1041.18 385.57 1064.96 412.82C1075.16 424.51 1080.47 438.79 1081.05 453.17" stroke="#F8F5F0" stroke-miterlimit="10"/>
<path d="M1081.11 678.11V453.17" stroke="#F8F5F0" stroke-miterlimit="10"/>
<path d="M636.51 635.97C643.027 635.97 648.31 630.687 648.31 624.17C648.31 617.653 643.027 612.37 636.51 612.37C629.993 612.37 624.71 617.653 624.71 624.17C624.71 630.687 629.993 635.97 636.51 635.97Z" fill="black"/>
<path d="M660.11 691.42C666.627 691.42 671.91 686.137 671.91 679.62C671.91 673.103 666.627 667.82 660.11 667.82C653.593 667.82 648.31 673.103 648.31 679.62C648.31 686.137 653.593 691.42 660.11 691.42Z" fill="black"/>
<path d="M857.44 864.74C869.568 864.74 879.4 854.908 879.4 842.78C879.4 830.652 869.568 820.82 857.44 820.82C845.312 820.82 835.48 830.652 835.48 842.78C835.48 854.908 845.312 864.74 857.44 864.74Z" fill="#F8F5F0"/>
<path d="M825.93 560.311C825.93 577.711 840.04 591.821 857.44 591.821C874.84 591.821 888.95 577.711 888.95 560.311H825.93Z" fill="#F8F5F0"/>
<path d="M941.05 536.351H816.85C793.09 536.351 773.83 517.09 773.83 493.33V370.83L837.49 297.001C849.13 287.611 865.75 287.611 877.4 297.001L941.06 370.83V536.351H941.05Z" fill="#F8F5F0"/>
<path d="M1058.68 505.22V448.26C1058.68 436.52 1049.16 427 1037.42 427C1025.68 427 1016.16 436.52 1016.16 448.26V552.08C1016.16 560.72 1023.16 567.72 1031.8 567.72C1040.44 567.72 1047.44 560.72 1047.44 552.08V552.14C1047.44 543.5 1040.44 536.5 1031.8 536.5L941.04 536.35C941.04 548.97 930.26 560.39 905.94 560.39H808.92C792.06 560.39 777.09 549.04 767.72 536.5H746.37" stroke="#F8F5F0" stroke-miterlimit="10"/>
<path d="M948.42 851.6C953.291 851.6 957.24 847.651 957.24 842.78C957.24 837.909 953.291 833.96 948.42 833.96C943.549 833.96 939.6 837.909 939.6 842.78C939.6 847.651 943.549 851.6 948.42 851.6Z" fill="#F8F5F0"/>
<path d="M766.45 851.6C771.321 851.6 775.27 847.651 775.27 842.78C775.27 837.909 771.321 833.96 766.45 833.96C761.579 833.96 757.63 837.909 757.63 842.78C757.63 847.651 761.579 851.6 766.45 851.6Z" fill="#F8F5F0"/>
<path d="M948.42 842.78H766.45" stroke="#F8F5F0" stroke-miterlimit="10"/>
<path d="M746.37 536.5H720.82C675.68 536.5 639.08 573.09 639.08 618.24V623.01C639.08 668.15 675.67 704.75 720.82 704.75V431.84" stroke="black" stroke-miterlimit="10"/>
<path d="M794.51 735.44C799.21 732.39 801.71 726.73 801.71 720.74C801.71 712.41 795.82 705.04 787.88 703.53C764.28 699.32 746.37 678.8 746.37 654.13C746.37 626.41 768.98 603.93 796.87 603.93C824.76 603.93 847.37 626.4 847.37 654.13C847.37 659.57 846.17 664.71 844.89 669.72C838.45 694.93 820.49 719.16 794.51 735.45" fill="#F8F5F0"/>
<path d="M1081.11 694.91C1089.11 694.91 1095.6 688.422 1095.6 680.42C1095.6 672.417 1089.11 665.93 1081.11 665.93C1073.11 665.93 1066.62 672.417 1066.62 680.42C1066.62 688.422 1073.11 694.91 1081.11 694.91Z" fill="#F8F5F0" stroke="#F8F5F0" stroke-miterlimit="10"/>
<path d="M1081.06 694.91C1089.06 694.91 1095.55 688.422 1095.55 680.42C1095.55 672.417 1089.06 665.93 1081.06 665.93C1073.06 665.93 1066.57 672.417 1066.57 680.42C1066.57 688.422 1073.06 694.91 1081.06 694.91Z" fill="#F8F5F0" stroke="#F8F5F0" stroke-miterlimit="10"/>
<path d="M866.08 221.31C872.255 221.31 877.26 216.305 877.26 210.13C877.26 203.956 872.255 198.95 866.08 198.95C859.906 198.95 854.9 203.956 854.9 210.13C854.9 216.305 859.906 221.31 866.08 221.31Z" fill="#F8F5F0" stroke="#F8F5F0" stroke-miterlimit="10"/>
<path d="M874.58 675.19C879.03 715.27 936.33 759.16 991.67 759.16C1063.07 759.16 1120.96 700.84 1120.96 628.89C1120.96 599.1 1110.48 568.26 1093.78 546.32L902.49 326.57L780.78 183.1C776.37 177.91 769.91 174.91 763.1 174.91H759.87C747.06 174.91 736.68 185.29 736.68 198.1C736.68 210.91 747.06 221.29 759.87 221.29H867.63" stroke="#F8F5F0" stroke-miterlimit="10"/>
<path d="M994.06 878.49V841.68H957.25C977.58 841.68 994.06 858.16 994.06 878.49V878.49Z" fill="#F8F5F0"/>
<path d="M757.63 841.68H720.82V878.49C720.82 858.16 737.3 841.68 757.63 841.68V841.68Z" fill="#F8F5F0"/>
</svg>
