<svg width="1728" height="1117" viewBox="0 0 1728 1117" fill="none" xmlns="http://www.w3.org/2000/svg">
<rect width="1728" height="1117" fill="black"/>
<path d="M930.26 489.501H784.61V376.231L857.44 302.431L930.26 376.231V489.501Z" fill="#F8F5F0"/>
<path d="M857.44 489.501V813.761" stroke="#F8F5F0" stroke-miterlimit="10"/>
<path d="M796.69 474.201L857.32 425.311L918.19 474.401" fill="#F8F5F0"/>
<path d="M796.69 474.201L857.32 425.311L918.19 474.401" stroke="black" stroke-miterlimit="10"/>
<path d="M857.44 322.351V425.311" stroke="black" stroke-miterlimit="10"/>
<path d="M784.61 886.591C784.61 846.371 817.22 813.761 857.44 813.761C897.66 813.761 930.27 846.371 930.27 886.591V909.781H784.62V886.591H784.61Z" stroke="#F8F5F0" stroke-miterlimit="10"/>
<path d="M857.44 813.651C861.94 813.651 866.33 814.081 870.6 814.861C870.64 814.461 870.66 814.061 870.66 813.651C870.66 806.351 864.74 800.431 857.44 800.431C850.14 800.431 844.22 806.351 844.22 813.651C844.22 814.061 844.24 814.461 844.28 814.861C848.55 814.081 852.95 813.651 857.44 813.651V813.651Z" fill="#F8F5F0" stroke="#F8F5F0" stroke-miterlimit="10"/>
<path d="M930.26 886.061H784.61V916.421H930.26V886.061Z" fill="#F8F5F0" stroke="#F8F5F0" stroke-miterlimit="10"/>
</svg>
