<svg width="1728" height="1117" viewBox="0 0 1728 1117" fill="none" xmlns="http://www.w3.org/2000/svg">
<rect width="1728" height="1117" fill="black"/>
<path d="M930.26 488.65H784.61V375.38L857.44 301.58L930.26 375.38V488.65Z" fill="#F8F5F0"/>
<path d="M857.44 488.65V812.91" stroke="#F8F5F0" stroke-miterlimit="10"/>
<path d="M796.69 473.35L857.32 424.46L918.19 473.55" fill="#F8F5F0"/>
<path d="M796.69 473.35L857.32 424.46L918.19 473.55" stroke="black" stroke-miterlimit="10"/>
<path d="M857.44 321.5V424.46" stroke="black" stroke-miterlimit="10"/>
<path d="M784.61 885.74C784.61 845.52 817.22 812.91 857.44 812.91C897.66 812.91 930.27 845.52 930.27 885.74V908.93H784.62V885.74H784.61Z" stroke="#F8F5F0" stroke-miterlimit="10"/>
<path d="M857.44 812.8C861.94 812.8 866.33 813.23 870.6 814.01C870.64 813.61 870.66 813.21 870.66 812.8C870.66 805.5 864.74 799.58 857.44 799.58C850.14 799.58 844.22 805.5 844.22 812.8C844.22 813.21 844.24 813.61 844.28 814.01C848.55 813.23 852.95 812.8 857.44 812.8V812.8Z" fill="#F8F5F0" stroke="#F8F5F0" stroke-miterlimit="10"/>
<path d="M930.26 885.21H784.61V915.57H930.26V885.21Z" fill="#F8F5F0" stroke="#F8F5F0" stroke-miterlimit="10"/>
<path d="M796.69 711.579C824.481 711.579 847.01 689.05 847.01 661.259C847.01 633.468 824.481 610.939 796.69 610.939C768.899 610.939 746.37 633.468 746.37 661.259C746.37 689.05 768.899 711.579 796.69 711.579Z" fill="#F8F5F0" stroke="#F8F5F0" stroke-miterlimit="10"/>
<path d="M961.25 751.85C1011.28 751.85 1051.84 711.291 1051.84 661.26C1051.84 611.228 1011.28 570.67 961.25 570.67C911.219 570.67 870.66 611.228 870.66 661.26C870.66 711.291 911.219 751.85 961.25 751.85Z" fill="#F8F5F0" stroke="#F8F5F0" stroke-miterlimit="10"/>
<path d="M941.05 502.5H773.83V377.66L837.49 303.83C849.13 294.44 865.75 294.44 877.4 303.83L941.06 377.66V502.5H941.05Z" fill="#F8F5F0"/>
<path d="M844.09 676.74C835.52 723.39 777.7 764.31 722.35 764.31C650.95 764.31 593.06 705.99 593.06 634.04C593.06 618.08 595.91 602.79 601.12 588.66C606.33 574.53 614.92 560.32 625.27 548.44L810.98 335.1" stroke="#F8F5F0" stroke-miterlimit="10"/>
<path d="M874.58 682.019C879.03 722.099 936.33 765.989 991.67 765.989C1063.07 765.989 1120.96 707.669 1120.96 635.719C1120.96 605.929 1110.48 575.089 1093.78 553.149L902.49 333.399" stroke="#F8F5F0" stroke-miterlimit="10"/>
<path d="M994.06 885.209H720.82V915.569H994.06V885.209Z" fill="#F8F5F0" stroke="#F8F5F0" stroke-miterlimit="10"/>
<path d="M518.34 283.159V174.149L448.14 283.159" stroke="#F8F5F0" stroke-miterlimit="10"/>
<path d="M518.34 232.609H480.69" stroke="#F8F5F0" stroke-miterlimit="10"/>
<path d="M518.34 283.159H494.22" stroke="#F8F5F0" stroke-miterlimit="10"/>
<path d="M429.32 283.159H466.97" stroke="#F8F5F0" stroke-miterlimit="10"/>
<path d="M1152.05 898.439V1007.45L1222.24 898.439" stroke="#F8F5F0" stroke-miterlimit="10"/>
<path d="M1152.05 948.979H1189.7" stroke="#F8F5F0" stroke-miterlimit="10"/>
<path d="M1152.05 898.439H1176.16" stroke="#F8F5F0" stroke-miterlimit="10"/>
<path d="M1203.42 898.439H1241.07" stroke="#F8F5F0" stroke-miterlimit="10"/>
<path d="M1058.68 512.05C1031.43 535.83 990.06 533.02 966.28 505.77C942.5 478.52 945.31 437.15 972.56 413.37" fill="#F8F5F0"/>
<path d="M720.82 438.67V372.98C720.82 365.87 726.63 360.13 733.74 360.21C740.74 360.29 746.37 365.98 746.37 372.98V761.84" stroke="#F8F5F0" stroke-miterlimit="10"/>
<path d="M746.37 761.84C738.42 763.45 730.36 764.3 722.35 764.3C650.95 764.3 593.06 705.98 593.06 634.03C593.06 618.07 595.91 602.78 601.12 588.65C606.57 573.86 614.92 560.31 625.27 548.43L746.37 409.32V761.85V761.84Z" fill="#F8F5F0"/>
<path d="M972.56 413.371C999.81 389.591 1041.18 392.401 1064.96 419.651C1075.16 431.341 1080.47 445.621 1081.05 460.001" stroke="#F8F5F0" stroke-miterlimit="10"/>
<path d="M1081.11 684.94V460" stroke="#F8F5F0" stroke-miterlimit="10"/>
<path d="M636.51 642.8C643.027 642.8 648.31 637.517 648.31 631C648.31 624.483 643.027 619.2 636.51 619.2C629.993 619.2 624.71 624.483 624.71 631C624.71 637.517 629.993 642.8 636.51 642.8Z" fill="black"/>
<path d="M660.11 698.25C666.627 698.25 671.91 692.967 671.91 686.45C671.91 679.933 666.627 674.65 660.11 674.65C653.593 674.65 648.31 679.933 648.31 686.45C648.31 692.967 653.593 698.25 660.11 698.25Z" fill="black"/>
<path d="M857.44 871.57C869.568 871.57 879.4 861.739 879.4 849.61C879.4 837.482 869.568 827.65 857.44 827.65C845.312 827.65 835.48 837.482 835.48 849.61C835.48 861.739 845.312 871.57 857.44 871.57Z" fill="#F8F5F0"/>
<path d="M825.93 567.141C825.93 584.541 840.04 598.651 857.44 598.651C874.84 598.651 888.95 584.541 888.95 567.141H825.93Z" fill="#F8F5F0"/>
<path d="M941.05 543.181H816.85C793.09 543.181 773.83 523.921 773.83 500.161V377.661L837.49 303.831C849.13 294.441 865.75 294.441 877.4 303.831L941.06 377.661V543.181H941.05Z" fill="#F8F5F0"/>
<path d="M1058.68 512.05V455.09C1058.68 443.35 1049.16 433.83 1037.42 433.83C1025.68 433.83 1016.16 443.35 1016.16 455.09V558.91C1016.16 567.55 1023.16 574.55 1031.8 574.55C1040.44 574.55 1047.44 567.55 1047.44 558.91V558.97C1047.44 550.33 1040.44 543.33 1031.8 543.33L941.04 543.18C941.04 555.8 930.26 567.22 905.94 567.22H808.92C792.06 567.22 777.09 555.87 767.72 543.33H746.37" stroke="#F8F5F0" stroke-miterlimit="10"/>
<path d="M948.42 858.43C953.291 858.43 957.24 854.481 957.24 849.61C957.24 844.739 953.291 840.79 948.42 840.79C943.549 840.79 939.6 844.739 939.6 849.61C939.6 854.481 943.549 858.43 948.42 858.43Z" fill="#F8F5F0"/>
<path d="M766.45 858.43C771.321 858.43 775.27 854.481 775.27 849.61C775.27 844.739 771.321 840.79 766.45 840.79C761.579 840.79 757.63 844.739 757.63 849.61C757.63 854.481 761.579 858.43 766.45 858.43Z" fill="#F8F5F0"/>
<path d="M948.42 849.61H766.45" stroke="#F8F5F0" stroke-miterlimit="10"/>
<path d="M746.37 543.33H720.82C675.68 543.33 639.08 579.92 639.08 625.07V629.84C639.08 674.98 675.67 711.58 720.82 711.58V438.67" stroke="black" stroke-miterlimit="10"/>
<path d="M794.51 742.27C799.21 739.22 801.71 733.56 801.71 727.57C801.71 719.24 795.82 711.87 787.88 710.36C764.28 706.15 746.37 685.63 746.37 660.96C746.37 633.24 768.98 610.76 796.87 610.76C824.76 610.76 847.37 633.23 847.37 660.96C847.37 666.4 846.17 671.54 844.89 676.55C838.45 701.76 820.49 725.99 794.51 742.28" fill="#F8F5F0"/>
<path d="M1081.11 701.74C1089.11 701.74 1095.6 695.252 1095.6 687.25C1095.6 679.247 1089.11 672.76 1081.11 672.76C1073.11 672.76 1066.62 679.247 1066.62 687.25C1066.62 695.252 1073.11 701.74 1081.11 701.74Z" fill="#F8F5F0" stroke="#F8F5F0" stroke-miterlimit="10"/>
<path d="M1081.06 701.74C1089.06 701.74 1095.55 695.252 1095.55 687.25C1095.55 679.247 1089.06 672.76 1081.06 672.76C1073.06 672.76 1066.57 679.247 1066.57 687.25C1066.57 695.252 1073.06 701.74 1081.06 701.74Z" fill="#F8F5F0" stroke="#F8F5F0" stroke-miterlimit="10"/>
<path d="M866.08 228.14C872.255 228.14 877.26 223.135 877.26 216.96C877.26 210.786 872.255 205.78 866.08 205.78C859.906 205.78 854.9 210.786 854.9 216.96C854.9 223.135 859.906 228.14 866.08 228.14Z" fill="#F8F5F0" stroke="#F8F5F0" stroke-miterlimit="10"/>
<path d="M874.58 682.02C879.03 722.1 936.33 765.99 991.67 765.99C1063.07 765.99 1120.96 707.67 1120.96 635.72C1120.96 605.93 1110.48 575.09 1093.78 553.15L902.49 333.4L780.78 189.93C776.37 184.74 769.91 181.74 763.1 181.74H759.87C747.06 181.74 736.68 192.12 736.68 204.93C736.68 217.74 747.06 228.12 759.87 228.12H867.63" stroke="#F8F5F0" stroke-miterlimit="10"/>
<path d="M994.06 885.32V848.51H957.25C977.58 848.51 994.06 864.99 994.06 885.32V885.32Z" fill="#F8F5F0"/>
<path d="M757.63 848.51H720.82V885.32C720.82 864.99 737.3 848.51 757.63 848.51V848.51Z" fill="#F8F5F0"/>
<path d="M552.13 717.11C552.13 780.79 500.51 832.41 436.83 832.41C373.15 832.41 321.53 780.79 321.53 717.11L436.83 832.41L321.53 924.32C321.53 988 373.15 1039.62 436.83 1039.62C500.51 1039.62 552.13 988 552.13 924.32V717.12" stroke="#F8F5F0" stroke-miterlimit="10"/>
<path d="M321.53 924C346.8 955.84 393.1 961.17 424.94 935.9C456.78 910.63 462.11 864.33 436.84 832.49L321.52 924H321.53Z" fill="#F8F5F0"/>
<path d="M1167.66 496.34C1167.66 432.66 1219.28 381.04 1282.96 381.04C1346.64 381.04 1398.26 432.66 1398.26 496.34L1282.96 381.04L1398.26 289.13C1398.26 225.45 1346.64 173.83 1282.96 173.83C1219.28 173.83 1167.66 225.45 1167.66 289.13V496.33V496.34Z" stroke="#F8F5F0" stroke-miterlimit="10"/>
<path d="M1398.26 289.45C1372.99 257.61 1326.69 252.28 1294.85 277.55C1263.01 302.82 1257.68 349.12 1282.95 380.96L1398.27 289.45H1398.26Z" fill="#F8F5F0"/>
<path d="M436.83 741.701C450.411 741.701 461.42 730.691 461.42 717.11C461.42 703.53 450.411 692.521 436.83 692.521C423.249 692.521 412.24 703.53 412.24 717.11C412.24 730.691 423.249 741.701 436.83 741.701Z" fill="#F8F5F0"/>
<path d="M429.2 283.16C429.2 272.7 437.68 264.21 448.15 264.21C458.62 264.21 467.1 272.69 467.1 283.16" fill="#F8F5F0"/>
<path d="M1241.19 898.44C1241.19 908.9 1232.71 917.39 1222.24 917.39C1211.77 917.39 1203.29 908.91 1203.29 898.44" fill="#F8F5F0"/>
<path d="M1279.47 520.93C1293.05 520.93 1304.06 509.921 1304.06 496.34C1304.06 482.759 1293.05 471.75 1279.47 471.75C1265.89 471.75 1254.88 482.759 1254.88 496.34C1254.88 509.921 1265.89 520.93 1279.47 520.93Z" fill="#F8F5F0"/>
<path d="M1283.24 611.72C1283.24 548 1231.58 496.34 1167.86 496.34" stroke="#F8F5F0" stroke-miterlimit="10"/>
<path d="M552.13 718.01C552.13 654.29 500.55 601.74 436.83 601.74H413.39C395.8 601.74 381.53 587.48 381.53 569.88C381.53 552.28 395.79 538.02 413.39 538.02H445.25C462.84 538.02 477.11 523.76 477.11 506.16C477.11 488.56 462.85 474.3 445.25 474.3H413.39C395.8 474.3 381.53 460.04 381.53 442.44C381.53 424.84 395.79 410.58 413.39 410.58H445.25C462.84 410.58 477.11 396.32 477.11 378.72C477.11 361.12 462.85 346.86 445.25 346.86H413.39C395.8 346.86 381.53 332.6 381.53 315C381.53 297.4 395.79 283.14 413.39 283.14H547.21" stroke="#F8F5F0" stroke-miterlimit="10"/>
<path d="M1283.24 611.72C1283.24 629.31 1268.98 643.58 1251.38 643.58H1219.52C1201.93 643.58 1187.66 657.84 1187.66 675.44C1187.66 693.04 1201.92 707.3 1219.52 707.3H1251.38C1268.97 707.3 1283.24 721.56 1283.24 739.16C1283.24 756.76 1268.98 771.02 1251.38 771.02H1219.52C1201.93 771.02 1187.66 785.28 1187.66 802.88C1187.66 820.48 1201.92 834.74 1219.52 834.74H1251.38C1268.97 834.74 1283.24 849 1283.24 866.6C1283.24 884.2 1268.98 898.46 1251.38 898.46H1122.87" stroke="#F8F5F0" stroke-miterlimit="10"/>
<path d="M477.11 378.73V608.97" stroke="#F8F5F0" stroke-miterlimit="10"/>
<path d="M1187.53 497.94V802.86" stroke="#F8F5F0" stroke-miterlimit="10"/>
<path d="M1152.05 898.44H1122.87V1007.45H1152.05V898.44Z" fill="#F8F5F0"/>
<path d="M547.21 174.15H518.03V283.16H547.21V174.15Z" fill="#F8F5F0"/>
<path d="M209 1007.45V636.73C209 620.16 222.43 606.73 239 606.73H288.84V261.84" stroke="#F8F5F0" stroke-miterlimit="10"/>
<path d="M209 967.08V1047.82H289.74C245.15 1047.82 209 1011.67 209 967.08Z" fill="#F8F5F0"/>
<path d="M240.36 606.88H288.84V558.4C288.84 585.17 267.14 606.88 240.36 606.88Z" fill="#F8F5F0"/>
<path d="M288.54 230.97C288.54 217.99 277.79 207.24 264.81 207.24C251.83 207.24 241.53 196.49 241.53 183.51C241.53 170.53 252.05 160 265.04 160C278.02 160 288.55 170.52 288.55 183.51V230.98L288.54 230.97Z" fill="#F8F5F0"/>
<path d="M288.69 274.03C288.69 265.55 295.71 258.54 304.18 258.54C312.65 258.54 319.38 251.52 319.38 243.05C319.38 234.58 312.51 227.7 304.03 227.7C295.55 227.7 288.68 234.57 288.68 243.05V274.04L288.69 274.03Z" fill="#F8F5F0"/>
<path d="M288.54 326.18C288.54 313.2 277.79 302.45 264.81 302.45C251.83 302.45 241.53 291.7 241.53 278.72C241.53 265.74 252.05 255.21 265.04 255.21C278.02 255.21 288.55 265.73 288.55 278.72V326.19L288.54 326.18Z" fill="#F8F5F0"/>
<path d="M288.69 372.83C288.69 364.35 295.71 357.34 304.18 357.34C312.65 357.34 319.38 350.32 319.38 341.85C319.38 333.38 312.51 326.5 304.03 326.5C295.55 326.5 288.68 333.37 288.68 341.85V372.84L288.69 372.83Z" fill="#F8F5F0"/>
<path d="M288.54 421.38C288.54 408.4 277.79 397.65 264.81 397.65C251.83 397.65 241.53 386.9 241.53 373.92C241.53 360.94 252.05 350.41 265.04 350.41C278.02 350.41 288.55 360.93 288.55 373.92V421.39L288.54 421.38Z" fill="#F8F5F0"/>
<path d="M288.69 471.64C288.69 463.16 295.71 456.15 304.18 456.15C312.65 456.15 319.38 449.13 319.38 440.66C319.38 432.19 312.51 425.31 304.03 425.31C295.55 425.31 288.68 432.18 288.68 440.66V471.65L288.69 471.64Z" fill="#F8F5F0"/>
<path d="M1412.06 1007.45V636.73C1412.06 620.16 1425.49 606.73 1442.06 606.73H1491.9V261.84" stroke="#F8F5F0" stroke-miterlimit="10"/>
<path d="M1412.06 967.08V1047.82H1492.8C1448.21 1047.82 1412.06 1011.67 1412.06 967.08Z" fill="#F8F5F0"/>
<path d="M1443.41 606.879H1491.89V558.399C1491.89 585.169 1470.19 606.879 1443.41 606.879Z" fill="#F8F5F0"/>
<path d="M1491.96 230.97C1491.96 217.99 1502.71 207.24 1515.69 207.24C1528.67 207.24 1538.97 196.49 1538.97 183.51C1538.97 170.53 1528.45 160 1515.46 160C1502.48 160 1491.95 170.52 1491.95 183.51V230.98L1491.96 230.97Z" fill="#F8F5F0"/>
<path d="M1491.82 274.03C1491.82 265.55 1484.8 258.54 1476.33 258.54C1467.86 258.54 1461.13 251.52 1461.13 243.05C1461.13 234.58 1468 227.7 1476.48 227.7C1484.96 227.7 1491.83 234.57 1491.83 243.05V274.04L1491.82 274.03Z" fill="#F8F5F0"/>
<path d="M1491.96 326.18C1491.96 313.2 1502.71 302.45 1515.69 302.45C1528.67 302.45 1538.97 291.7 1538.97 278.72C1538.97 265.74 1528.45 255.21 1515.46 255.21C1502.48 255.21 1491.95 265.73 1491.95 278.72V326.19L1491.96 326.18Z" fill="#F8F5F0"/>
<path d="M1491.82 372.83C1491.82 364.35 1484.8 357.34 1476.33 357.34C1467.86 357.34 1461.13 350.32 1461.13 341.85C1461.13 333.37 1468 326.5 1476.48 326.5C1484.96 326.5 1491.83 333.37 1491.83 341.85V372.84L1491.82 372.83Z" fill="#F8F5F0"/>
<path d="M1491.96 421.38C1491.96 408.4 1502.71 397.65 1515.69 397.65C1528.67 397.65 1538.97 386.9 1538.97 373.92C1538.97 360.94 1528.45 350.41 1515.46 350.41C1502.48 350.41 1491.95 360.93 1491.95 373.92V421.39L1491.96 421.38Z" fill="#F8F5F0"/>
<path d="M1491.82 471.64C1491.82 463.16 1484.8 456.15 1476.33 456.15C1467.86 456.15 1461.13 449.13 1461.13 440.66C1461.13 432.19 1468 425.31 1476.48 425.31C1484.96 425.31 1491.83 432.18 1491.83 440.66V471.65L1491.82 471.64Z" fill="#F8F5F0"/>
</svg>
