<svg width="1728" height="1117" viewBox="0 0 1728 1117" fill="none" xmlns="http://www.w3.org/2000/svg">
<rect width="1728" height="1117" fill="black"/>
<path d="M930.26 481.65H784.61V368.38L857.44 294.58L930.26 368.38V481.65Z" fill="#F8F5F0"/>
<path d="M857.44 481.65V805.91" stroke="#F8F5F0" stroke-miterlimit="10"/>
<path d="M796.69 466.35L857.32 417.46L918.19 466.55" fill="#F8F5F0"/>
<path d="M796.69 466.35L857.32 417.46L918.19 466.55" stroke="black" stroke-miterlimit="10"/>
<path d="M857.44 314.5V417.46" stroke="black" stroke-miterlimit="10"/>
<path d="M784.61 878.74C784.61 838.52 817.22 805.91 857.44 805.91C897.66 805.91 930.27 838.52 930.27 878.74V901.93H784.62V878.74H784.61Z" stroke="#F8F5F0" stroke-miterlimit="10"/>
<path d="M857.44 805.8C861.94 805.8 866.33 806.23 870.6 807.01C870.64 806.61 870.66 806.21 870.66 805.8C870.66 798.5 864.74 792.58 857.44 792.58C850.14 792.58 844.22 798.5 844.22 805.8C844.22 806.21 844.24 806.61 844.28 807.01C848.55 806.23 852.95 805.8 857.44 805.8V805.8Z" fill="#F8F5F0" stroke="#F8F5F0" stroke-miterlimit="10"/>
<path d="M930.26 878.21H784.61V908.57H930.26V878.21Z" fill="#F8F5F0" stroke="#F8F5F0" stroke-miterlimit="10"/>
<path d="M796.69 704.579C824.481 704.579 847.01 682.05 847.01 654.259C847.01 626.468 824.481 603.939 796.69 603.939C768.899 603.939 746.37 626.468 746.37 654.259C746.37 682.05 768.899 704.579 796.69 704.579Z" fill="#F8F5F0" stroke="#F8F5F0" stroke-miterlimit="10"/>
<path d="M961.25 744.85C1011.28 744.85 1051.84 704.291 1051.84 654.26C1051.84 604.228 1011.28 563.67 961.25 563.67C911.219 563.67 870.66 604.228 870.66 654.26C870.66 704.291 911.219 744.85 961.25 744.85Z" fill="#F8F5F0" stroke="#F8F5F0" stroke-miterlimit="10"/>
<path d="M941.05 495.5H773.83V370.66L837.49 296.83C849.13 287.44 865.75 287.44 877.4 296.83L941.06 370.66V495.5H941.05Z" fill="#F8F5F0"/>
<path d="M844.09 669.74C835.52 716.39 777.7 757.31 722.35 757.31C650.95 757.31 593.06 698.99 593.06 627.04C593.06 611.08 595.91 595.79 601.12 581.66C606.33 567.53 614.92 553.32 625.27 541.44L810.98 328.1" stroke="#F8F5F0" stroke-miterlimit="10"/>
<path d="M874.58 675.019C879.03 715.099 936.33 758.989 991.67 758.989C1063.07 758.989 1120.96 700.669 1120.96 628.719C1120.96 598.929 1110.48 568.089 1093.78 546.149L902.49 326.399" stroke="#F8F5F0" stroke-miterlimit="10"/>
<path d="M994.06 878.209H720.82V908.569H994.06V878.209Z" fill="#F8F5F0" stroke="#F8F5F0" stroke-miterlimit="10"/>
<path d="M518.34 276.159V167.149L448.14 276.159" stroke="#F8F5F0" stroke-miterlimit="10"/>
<path d="M518.34 225.609H480.69" stroke="#F8F5F0" stroke-miterlimit="10"/>
<path d="M518.34 276.159H494.22" stroke="#F8F5F0" stroke-miterlimit="10"/>
<path d="M429.32 276.159H466.97" stroke="#F8F5F0" stroke-miterlimit="10"/>
<path d="M1152.05 891.439V1000.45L1222.24 891.439" stroke="#F8F5F0" stroke-miterlimit="10"/>
<path d="M1152.05 941.979H1189.7" stroke="#F8F5F0" stroke-miterlimit="10"/>
<path d="M1152.05 891.439H1176.16" stroke="#F8F5F0" stroke-miterlimit="10"/>
<path d="M1203.42 891.439H1241.07" stroke="#F8F5F0" stroke-miterlimit="10"/>
<path d="M1058.68 505.05C1031.43 528.83 990.06 526.02 966.28 498.77C942.5 471.52 945.31 430.15 972.56 406.37" fill="#F8F5F0"/>
<path d="M720.82 431.67V365.98C720.82 358.87 726.63 353.13 733.74 353.21C740.74 353.29 746.37 358.98 746.37 365.98V754.84" stroke="#F8F5F0" stroke-miterlimit="10"/>
<path d="M746.37 754.84C738.42 756.45 730.36 757.3 722.35 757.3C650.95 757.3 593.06 698.98 593.06 627.03C593.06 611.07 595.91 595.78 601.12 581.65C606.57 566.86 614.92 553.31 625.27 541.43L746.37 402.32V754.85V754.84Z" fill="#F8F5F0"/>
<path d="M972.56 406.371C999.81 382.591 1041.18 385.401 1064.96 412.651C1075.16 424.341 1080.47 438.621 1081.05 453.001" stroke="#F8F5F0" stroke-miterlimit="10"/>
<path d="M1081.11 677.94V453" stroke="#F8F5F0" stroke-miterlimit="10"/>
<path d="M636.51 635.8C643.027 635.8 648.31 630.517 648.31 624C648.31 617.483 643.027 612.2 636.51 612.2C629.993 612.2 624.71 617.483 624.71 624C624.71 630.517 629.993 635.8 636.51 635.8Z" fill="black"/>
<path d="M660.11 691.25C666.627 691.25 671.91 685.967 671.91 679.45C671.91 672.933 666.627 667.65 660.11 667.65C653.593 667.65 648.31 672.933 648.31 679.45C648.31 685.967 653.593 691.25 660.11 691.25Z" fill="black"/>
<path d="M857.44 864.57C869.568 864.57 879.4 854.739 879.4 842.61C879.4 830.482 869.568 820.65 857.44 820.65C845.312 820.65 835.48 830.482 835.48 842.61C835.48 854.739 845.312 864.57 857.44 864.57Z" fill="#F8F5F0"/>
<path d="M825.93 560.141C825.93 577.541 840.04 591.651 857.44 591.651C874.84 591.651 888.95 577.541 888.95 560.141H825.93Z" fill="#F8F5F0"/>
<path d="M941.05 536.181H816.85C793.09 536.181 773.83 516.921 773.83 493.161V370.661L837.49 296.831C849.13 287.441 865.75 287.441 877.4 296.831L941.06 370.661V536.181H941.05Z" fill="#F8F5F0"/>
<path d="M1058.68 505.05V448.09C1058.68 436.35 1049.16 426.83 1037.42 426.83C1025.68 426.83 1016.16 436.35 1016.16 448.09V551.91C1016.16 560.55 1023.16 567.55 1031.8 567.55C1040.44 567.55 1047.44 560.55 1047.44 551.91V551.97C1047.44 543.33 1040.44 536.33 1031.8 536.33L941.04 536.18C941.04 548.8 930.26 560.22 905.94 560.22H808.92C792.06 560.22 777.09 548.87 767.72 536.33H746.37" stroke="#F8F5F0" stroke-miterlimit="10"/>
<path d="M948.42 851.43C953.291 851.43 957.24 847.481 957.24 842.61C957.24 837.739 953.291 833.79 948.42 833.79C943.549 833.79 939.6 837.739 939.6 842.61C939.6 847.481 943.549 851.43 948.42 851.43Z" fill="#F8F5F0"/>
<path d="M766.45 851.43C771.321 851.43 775.27 847.481 775.27 842.61C775.27 837.739 771.321 833.79 766.45 833.79C761.579 833.79 757.63 837.739 757.63 842.61C757.63 847.481 761.579 851.43 766.45 851.43Z" fill="#F8F5F0"/>
<path d="M948.42 842.61H766.45" stroke="#F8F5F0" stroke-miterlimit="10"/>
<path d="M746.37 536.33H720.82C675.68 536.33 639.08 572.92 639.08 618.07V622.84C639.08 667.98 675.67 704.58 720.82 704.58V431.67" stroke="black" stroke-miterlimit="10"/>
<path d="M794.51 735.27C799.21 732.22 801.71 726.56 801.71 720.57C801.71 712.24 795.82 704.87 787.88 703.36C764.28 699.15 746.37 678.63 746.37 653.96C746.37 626.24 768.98 603.76 796.87 603.76C824.76 603.76 847.37 626.23 847.37 653.96C847.37 659.4 846.17 664.54 844.89 669.55C838.45 694.76 820.49 718.99 794.51 735.28" fill="#F8F5F0"/>
<path d="M1081.11 694.74C1089.11 694.74 1095.6 688.252 1095.6 680.25C1095.6 672.247 1089.11 665.76 1081.11 665.76C1073.11 665.76 1066.62 672.247 1066.62 680.25C1066.62 688.252 1073.11 694.74 1081.11 694.74Z" fill="#F8F5F0" stroke="#F8F5F0" stroke-miterlimit="10"/>
<path d="M1081.06 694.74C1089.06 694.74 1095.55 688.252 1095.55 680.25C1095.55 672.247 1089.06 665.76 1081.06 665.76C1073.06 665.76 1066.57 672.247 1066.57 680.25C1066.57 688.252 1073.06 694.74 1081.06 694.74Z" fill="#F8F5F0" stroke="#F8F5F0" stroke-miterlimit="10"/>
<path d="M866.08 221.14C872.255 221.14 877.26 216.135 877.26 209.96C877.26 203.786 872.255 198.78 866.08 198.78C859.906 198.78 854.9 203.786 854.9 209.96C854.9 216.135 859.906 221.14 866.08 221.14Z" fill="#F8F5F0" stroke="#F8F5F0" stroke-miterlimit="10"/>
<path d="M874.58 675.02C879.03 715.1 936.33 758.99 991.67 758.99C1063.07 758.99 1120.96 700.67 1120.96 628.72C1120.96 598.93 1110.48 568.09 1093.78 546.15L902.49 326.4L780.78 182.93C776.37 177.74 769.91 174.74 763.1 174.74H759.87C747.06 174.74 736.68 185.12 736.68 197.93C736.68 210.74 747.06 221.12 759.87 221.12H867.63" stroke="#F8F5F0" stroke-miterlimit="10"/>
<path d="M994.06 878.32V841.51H957.25C977.58 841.51 994.06 857.99 994.06 878.32V878.32Z" fill="#F8F5F0"/>
<path d="M757.63 841.51H720.82V878.32C720.82 857.99 737.3 841.51 757.63 841.51V841.51Z" fill="#F8F5F0"/>
<path d="M552.13 710.11C552.13 773.79 500.51 825.41 436.83 825.41C373.15 825.41 321.53 773.79 321.53 710.11L436.83 825.41L321.53 917.32C321.53 981 373.15 1032.62 436.83 1032.62C500.51 1032.62 552.13 981 552.13 917.32V710.12" stroke="#F8F5F0" stroke-miterlimit="10"/>
<path d="M321.53 917C346.8 948.84 393.1 954.17 424.94 928.9C456.78 903.63 462.11 857.33 436.84 825.49L321.52 917H321.53Z" fill="#F8F5F0"/>
<path d="M1167.66 489.34C1167.66 425.66 1219.28 374.04 1282.96 374.04C1346.64 374.04 1398.26 425.66 1398.26 489.34L1282.96 374.04L1398.26 282.13C1398.26 218.45 1346.64 166.83 1282.96 166.83C1219.28 166.83 1167.66 218.45 1167.66 282.13V489.33V489.34Z" stroke="#F8F5F0" stroke-miterlimit="10"/>
<path d="M1398.26 282.45C1372.99 250.61 1326.69 245.28 1294.85 270.55C1263.01 295.82 1257.68 342.12 1282.95 373.96L1398.27 282.45H1398.26Z" fill="#F8F5F0"/>
<path d="M436.83 734.701C450.411 734.701 461.42 723.691 461.42 710.11C461.42 696.53 450.411 685.521 436.83 685.521C423.249 685.521 412.24 696.53 412.24 710.11C412.24 723.691 423.249 734.701 436.83 734.701Z" fill="#F8F5F0"/>
<path d="M429.2 276.16C429.2 265.7 437.68 257.21 448.15 257.21C458.62 257.21 467.1 265.69 467.1 276.16" fill="#F8F5F0"/>
<path d="M1241.19 891.44C1241.19 901.9 1232.71 910.39 1222.24 910.39C1211.77 910.39 1203.29 901.91 1203.29 891.44" fill="#F8F5F0"/>
<path d="M1279.47 513.93C1293.05 513.93 1304.06 502.921 1304.06 489.34C1304.06 475.759 1293.05 464.75 1279.47 464.75C1265.89 464.75 1254.88 475.759 1254.88 489.34C1254.88 502.921 1265.89 513.93 1279.47 513.93Z" fill="#F8F5F0"/>
<path d="M1283.24 604.72C1283.24 541 1231.58 489.34 1167.86 489.34" stroke="#F8F5F0" stroke-miterlimit="10"/>
<path d="M552.13 711.01C552.13 647.29 500.55 594.74 436.83 594.74H413.39C395.8 594.74 381.53 580.48 381.53 562.88C381.53 545.28 395.79 531.02 413.39 531.02H445.25C462.84 531.02 477.11 516.76 477.11 499.16C477.11 481.56 462.85 467.3 445.25 467.3H413.39C395.8 467.3 381.53 453.04 381.53 435.44C381.53 417.84 395.79 403.58 413.39 403.58H445.25C462.84 403.58 477.11 389.32 477.11 371.72C477.11 354.12 462.85 339.86 445.25 339.86H413.39C395.8 339.86 381.53 325.6 381.53 308C381.53 290.4 395.79 276.14 413.39 276.14H547.21" stroke="#F8F5F0" stroke-miterlimit="10"/>
<path d="M1283.24 604.72C1283.24 622.31 1268.98 636.58 1251.38 636.58H1219.52C1201.93 636.58 1187.66 650.84 1187.66 668.44C1187.66 686.04 1201.92 700.3 1219.52 700.3H1251.38C1268.97 700.3 1283.24 714.56 1283.24 732.16C1283.24 749.76 1268.98 764.02 1251.38 764.02H1219.52C1201.93 764.02 1187.66 778.28 1187.66 795.88C1187.66 813.48 1201.92 827.74 1219.52 827.74H1251.38C1268.97 827.74 1283.24 842 1283.24 859.6C1283.24 877.2 1268.98 891.46 1251.38 891.46H1122.87" stroke="#F8F5F0" stroke-miterlimit="10"/>
<path d="M477.11 371.73V601.97" stroke="#F8F5F0" stroke-miterlimit="10"/>
<path d="M1187.53 490.94V795.86" stroke="#F8F5F0" stroke-miterlimit="10"/>
<path d="M1152.05 891.44H1122.87V1000.45H1152.05V891.44Z" fill="#F8F5F0"/>
<path d="M547.21 167.15H518.03V276.16H547.21V167.15Z" fill="#F8F5F0"/>
</svg>
