<svg width="725" height="502" viewBox="0 0 725 502" fill="none" xmlns="http://www.w3.org/2000/svg">
<g style="mix-blend-mode:multiply" clip-path="url(#clip0_90_1783)">
<path d="M122.309 426.294C155.308 426.294 182.059 399.543 182.059 366.543C182.059 333.544 155.308 306.793 122.309 306.793C89.3097 306.793 62.5586 333.544 62.5586 366.543C62.5586 399.543 89.3097 426.294 122.309 426.294Z" fill="#DF3F31"/>
<path d="M423.595 67.7099C410.581 81.2858 402.688 99.8059 403.021 120.174C403.679 159.867 436.085 192.273 475.778 192.916C502.265 193.345 525.625 179.865 539.046 159.298L447.296 67.5842C440.741 61.029 430.017 61.0143 423.595 67.7025V67.7099Z" fill="black" stroke="black" stroke-miterlimit="10"/>
<path d="M629.392 44.9182C670.26 44.9182 703.398 78.0489 703.398 118.925H629.392V44.9182Z" fill="black" stroke="black" stroke-miterlimit="10"/>
<path d="M555.394 118.925C555.394 159.793 588.524 192.931 629.4 192.931C629.4 152.063 596.269 118.925 555.394 118.925Z" fill="black"/>
<path d="M553.206 288.805C584.993 288.805 610.761 263.036 610.761 231.249C610.761 199.462 584.993 173.694 553.206 173.694C521.419 173.694 495.65 199.462 495.65 231.249C495.65 263.036 521.419 288.805 553.206 288.805Z" fill="black"/>
<path d="M247.855 454.148C255.316 454.148 261.364 448.099 261.364 440.638C261.364 433.177 255.316 427.129 247.855 427.129C240.394 427.129 234.345 433.177 234.345 440.638C234.345 448.099 240.394 454.148 247.855 454.148Z" fill="black"/>
<path d="M247.855 471.641C247.855 488.409 234.264 502 217.496 502H278.214C261.446 502 247.855 488.409 247.855 471.641Z" fill="black"/>
<path d="M373.393 244.604C337.683 244.604 305.558 259.953 283.261 284.415C283.261 284.415 283.239 284.437 283.224 284.452C282.803 284.91 282.389 285.383 281.983 285.849C273.809 294.562 261.275 298.479 250.471 292.094C260.965 298.294 262.99 310.895 259.812 322.084C254.417 335.859 251.446 350.861 251.446 366.551C251.446 433.899 306.038 488.491 373.386 488.491C440.733 488.491 495.325 433.899 495.325 366.551C495.325 299.203 440.733 244.611 373.386 244.611L373.393 244.604Z" fill="black"/>
<path d="M247.855 440.638V499.421" stroke="black" stroke-miterlimit="10"/>
<path d="M553.206 173.694V16.835" stroke="black" stroke-miterlimit="10"/>
<path d="M553.206 292.064V173.694" stroke="white" stroke-miterlimit="10"/>
<path d="M516.129 16.835C526.143 25.2821 539.076 30.3814 553.206 30.3814C567.336 30.3814 580.269 25.2821 590.283 16.835H516.129Z" fill="black"/>
<path d="M553.206 11.1593C556.287 11.1593 558.785 8.66123 558.785 5.57967C558.785 2.4981 556.287 0 553.206 0C550.124 0 547.626 2.4981 547.626 5.57967C547.626 8.66123 550.124 11.1593 553.206 11.1593Z" fill="black"/>
<path d="M111.815 488.04C186.811 494.432 250.198 431.038 243.805 356.049C241.935 334.07 234.227 313.755 222.248 296.661C215.796 287.452 202.649 286.204 194.697 294.155L36.0869 452.773C55.8337 472.52 82.3278 485.527 111.815 488.047V488.04Z" fill="black" stroke="black" stroke-width="0.75" stroke-miterlimit="10"/>
<path d="M250.471 276.264C300.555 274.911 341.297 234.169 342.65 184.085C342.96 172.534 341.209 161.433 337.728 151.124L238.521 250.331C228.869 259.983 235.838 276.515 249.481 276.286C249.813 276.286 250.138 276.271 250.471 276.264Z" fill="black" stroke="black" stroke-miterlimit="10"/>
<path d="M225.041 285.317C230.012 285.317 234.042 281.28 234.042 276.301C234.042 271.321 230.012 267.284 225.041 267.284C220.07 267.284 216.04 271.321 216.04 276.301C216.04 281.28 220.07 285.317 225.041 285.317Z" fill="black" stroke="black" stroke-width="0.75" stroke-miterlimit="10"/>
<path d="M193.558 260.079C193.558 276.005 180.647 288.909 164.729 288.909C148.81 288.909 135.899 275.998 135.899 260.079C135.899 244.16 148.81 231.25 164.729 231.25C180.647 231.25 193.558 244.16 193.558 260.079Z" stroke="black" stroke-miterlimit="10"/>
<path d="M241.728 87.4936C243.834 87.3532 245.955 87.2793 248.098 87.2793C290.356 87.2793 326.132 115.015 338.223 153.275" stroke="black" stroke-miterlimit="10"/>
<path d="M166.887 230.51C173.723 241.67 182.813 251.307 193.514 258.778C193.514 258.778 193.374 247.116 184.032 238.625C176.723 231.981 170.759 232.055 166.879 230.51" fill="black"/>
<path d="M185.976 110.566C166.133 127.889 153.592 153.371 153.592 181.786C153.592 199.848 158.662 216.72 167.449 231.072" stroke="black" stroke-miterlimit="10"/>
<path d="M338.215 153.274C341.061 162.268 342.59 171.846 342.59 181.786C342.59 233.186 301.56 275 250.471 276.256" stroke="black" stroke-miterlimit="10"/>
<path d="M185.806 89.4151C201.939 78.5144 221.08 71.7301 241.721 70.5698" stroke="black" stroke-miterlimit="10"/>
<path d="M337.728 151.124L421.548 67.3034C428.577 60.2752 439.972 60.2752 447 67.3034L538.906 159.209L539.039 159.298C546.614 147.688 551.011 133.816 551.011 118.925C551.011 78.0563 517.881 44.9182 477.005 44.9182C475.29 44.9182 473.591 44.9773 471.913 45.0882" stroke="black" stroke-miterlimit="10"/>
<path d="M471.92 66.6603C477.883 66.6603 482.717 61.8263 482.717 55.8631C482.717 49.9 477.883 45.0659 471.92 45.0659C465.957 45.0659 461.123 49.9 461.123 55.8631C461.123 61.8263 465.957 66.6603 471.92 66.6603Z" fill="black" stroke="black" stroke-miterlimit="10"/>
<path d="M607.421 118.924C607.421 112.96 612.254 108.127 618.218 108.127C624.182 108.127 629.015 112.96 629.015 118.924H607.414H607.421Z" fill="black" stroke="black" stroke-miterlimit="10"/>
<path d="M555.394 118.925H607.421" stroke="black" stroke-miterlimit="10"/>
<path d="M703.398 119.36H725V97.2266L703.398 119.36Z" fill="black"/>
<path d="M650.994 170.797L629.392 192.923C636.908 192.923 644.158 191.793 650.994 189.709V170.79V170.797Z" fill="black"/>
<path d="M532.476 145.485C528.286 145.485 524.443 144.044 521.391 141.642L538.913 159.164L539.046 159.253C544.278 151.227 547.996 142.122 549.791 132.353C547.67 139.928 540.731 145.485 532.476 145.485Z" fill="black"/>
<path d="M222.787 172.748C226.513 172.748 229.534 169.727 229.534 166C229.534 162.274 226.513 159.253 222.787 159.253C219.06 159.253 216.04 162.274 216.04 166C216.04 169.727 219.06 172.748 222.787 172.748Z" fill="black"/>
<path d="M222.787 166.001V73.2747" stroke="black" stroke-miterlimit="10"/>
<path d="M204.378 195.658C208.104 195.658 211.125 192.637 211.125 188.91C211.125 185.184 208.104 182.163 204.378 182.163C200.651 182.163 197.63 185.184 197.63 188.91C197.63 192.637 200.651 195.658 204.378 195.658Z" fill="black"/>
<path d="M204.377 188.91V79.2903" stroke="black" stroke-miterlimit="10"/>
<path d="M185.976 159.253C189.702 159.253 192.723 156.232 192.723 152.506C192.723 148.779 189.702 145.759 185.976 145.759C182.249 145.759 179.229 148.779 179.229 152.506C179.229 156.232 182.249 159.253 185.976 159.253Z" fill="black"/>
<path d="M185.976 152.506V89.3042" stroke="black" stroke-miterlimit="10"/>
<path opacity="0.76" d="M36.0868 452.773C14.0195 430.706 0.369629 400.221 0.369629 366.543C0.369629 299.196 54.9615 244.604 122.309 244.604C148.537 244.604 172.836 252.888 192.724 266.974" stroke="black" stroke-miterlimit="10"/>
<path d="M126.012 244.604C131.636 244.604 136.188 249.104 136.188 254.655C136.188 255.002 136.173 255.342 136.136 255.682L139.662 245.831L126.012 244.604Z" fill="black"/>
<path d="M225.041 276.301L271.016 304.273" stroke="black" stroke-miterlimit="10"/>
<path d="M519.329 281.053V260.899C519.329 242.187 534.494 227.022 553.206 227.022C571.918 227.022 587.083 242.187 587.083 260.899V281.053" stroke="white" stroke-miterlimit="10"/>
<path d="M553.206 320.746C586.254 320.746 613.045 293.955 613.045 260.907C613.045 227.859 586.254 201.068 553.206 201.068C520.158 201.068 493.367 227.859 493.367 260.907C493.367 293.955 520.158 320.746 553.206 320.746Z" stroke="white" stroke-miterlimit="10"/>
<path d="M502.62 270.75C502.62 261.52 510.099 254.041 519.329 254.041C528.559 254.041 536.038 261.52 536.038 270.75" stroke="white" stroke-miterlimit="10"/>
<path d="M488.356 221.879C494.882 215.353 505.458 215.353 511.983 221.879C518.509 228.404 518.509 238.98 511.983 245.505" stroke="white" stroke-miterlimit="10"/>
<path d="M597.289 245.505C590.763 238.98 590.763 228.404 597.289 221.879C603.814 215.353 614.39 215.353 620.915 221.879" stroke="white" stroke-miterlimit="10"/>
<path d="M570.374 270.75C570.374 261.52 577.853 254.041 587.083 254.041C596.313 254.041 603.792 261.52 603.792 270.75" stroke="white" stroke-miterlimit="10"/>
</g>
<defs>
<clipPath id="clip0_90_1783">
<rect width="725" height="502" fill="white"/>
</clipPath>
</defs>
</svg>
