<svg width="752" height="638" viewBox="0 0 752 638" fill="none" xmlns="http://www.w3.org/2000/svg">
<g clip-path="url(#clip0_90_1881)">
<path fill-rule="evenodd" clip-rule="evenodd" d="M621.947 447.539V577.18L557.137 447.539H621.947ZM621.947 447.539V577.18L686.758 447.539H621.947Z" fill="#DF3F31"/>
<path fill-rule="evenodd" clip-rule="evenodd" d="M233.084 188.256V58.6152L297.894 188.256V188.257H297.693C261.993 188.365 233.084 217.346 233.084 253.077V188.257V188.256Z" fill="#DF3F31"/>
<path d="M233.084 313.775V378.596L297.894 248.955C262.102 248.955 233.084 277.977 233.084 313.775Z" fill="#DF3F31"/>
<path d="M557.137 317.898H686.758C722.55 317.898 751.568 346.92 751.568 382.719C751.568 418.517 722.55 447.539 686.758 447.539" stroke="black" stroke-miterlimit="10"/>
<path d="M557.136 317.898V74.0769C557.136 41.9086 531.057 15.8247 498.893 15.8247C466.73 15.8247 440.65 41.9086 440.65 74.0769V204.816C440.65 262.731 487.59 309.67 545.488 309.67" stroke="black" stroke-miterlimit="10"/>
<path d="M427.516 577.181V317.898H557.137L427.516 577.181Z" fill="black"/>
<path d="M297.894 577.181V317.898H168.273L297.894 577.181Z" fill="black"/>
<path d="M427.515 58.6152V317.898H297.895L427.515 58.6152Z" fill="black"/>
<path d="M233.084 317.898V188.257H168.273L233.084 317.898Z" fill="black"/>
<path d="M621.946 317.898V447.539H557.136L621.946 317.898Z" fill="black"/>
<path d="M621.946 317.898V447.539H686.757L621.946 317.898Z" fill="black"/>
<path d="M168.273 188.257H233.084V123.436C233.084 159.234 204.066 188.257 168.273 188.257Z" fill="black"/>
<path d="M168.273 123.436V58.6152L103.463 188.257C139.256 188.257 168.273 159.234 168.273 123.436Z" fill="black"/>
<path d="M448.565 118.389L534.858 309.385C536.811 313.3 541.573 314.899 545.487 312.946C549.402 310.993 551 306.23 549.048 302.315L448.565 118.389ZM543.69 309.325C542.065 310.137 540.095 309.471 539.283 307.847C538.47 306.222 539.136 304.251 540.76 303.439C542.385 302.626 544.355 303.292 545.168 304.917C545.98 306.542 545.314 308.512 543.69 309.325Z" fill="black"/>
<path d="M557.136 217.192V317.889H657.817C602.209 317.889 557.136 272.809 557.136 217.192Z" fill="black"/>
<path d="M281.864 359.824C284.995 359.824 287.533 357.286 287.533 354.155C287.533 351.023 284.995 348.485 281.864 348.485C278.733 348.485 276.195 351.023 276.195 354.155C276.195 357.286 278.733 359.824 281.864 359.824Z" fill="white"/>
<path d="M448.565 359.824C451.696 359.824 454.234 357.286 454.234 354.155C454.234 351.023 451.696 348.485 448.565 348.485C445.434 348.485 442.896 351.023 442.896 354.155C442.896 357.286 445.434 359.824 448.565 359.824Z" fill="white"/>
<path d="M281.864 396.366C284.995 396.366 287.533 393.827 287.533 390.696C287.533 387.565 284.995 385.026 281.864 385.026C278.733 385.026 276.195 387.565 276.195 390.696C276.195 393.827 278.733 396.366 281.864 396.366Z" fill="white"/>
<path d="M448.565 396.366C451.696 396.366 454.234 393.827 454.234 390.696C454.234 387.565 451.696 385.026 448.565 385.026C445.434 385.026 442.896 387.565 442.896 390.696C442.896 393.827 445.434 396.366 448.565 396.366Z" fill="white"/>
<path d="M281.864 432.907C284.995 432.907 287.533 430.369 287.533 427.238C287.533 424.106 284.995 421.568 281.864 421.568C278.733 421.568 276.195 424.106 276.195 427.238C276.195 430.369 278.733 432.907 281.864 432.907Z" fill="white"/>
<path d="M448.565 432.907C451.696 432.907 454.234 430.369 454.234 427.238C454.234 424.106 451.696 421.568 448.565 421.568C445.434 421.568 442.896 424.106 442.896 427.238C442.896 430.369 445.434 432.907 448.565 432.907Z" fill="white"/>
<path d="M281.864 472.526C284.995 472.526 287.533 469.987 287.533 466.856C287.533 463.725 284.995 461.187 281.864 461.187C278.733 461.187 276.195 463.725 276.195 466.856C276.195 469.987 278.733 472.526 281.864 472.526Z" fill="white"/>
<path d="M448.565 472.526C451.696 472.526 454.234 469.987 454.234 466.856C454.234 463.725 451.696 461.187 448.565 461.187C445.434 461.187 442.896 463.725 442.896 466.856C442.896 469.987 445.434 472.526 448.565 472.526Z" fill="white"/>
<path d="M281.864 512.136C284.995 512.136 287.533 509.597 287.533 506.466C287.533 503.335 284.995 500.796 281.864 500.796C278.733 500.796 276.195 503.335 276.195 506.466C276.195 509.597 278.733 512.136 281.864 512.136Z" fill="white"/>
<path d="M448.565 512.136C451.696 512.136 454.234 509.597 454.234 506.466C454.234 503.335 451.696 500.796 448.565 500.796C445.434 500.796 442.896 503.335 442.896 506.466C442.896 509.597 445.434 512.136 448.565 512.136Z" fill="white"/>
<path d="M281.864 548.677C284.995 548.677 287.533 546.139 287.533 543.008C287.533 539.876 284.995 537.338 281.864 537.338C278.733 537.338 276.195 539.876 276.195 543.008C276.195 546.139 278.733 548.677 281.864 548.677Z" fill="white"/>
<path d="M448.565 548.677C451.696 548.677 454.234 546.139 454.234 543.008C454.234 539.876 451.696 537.338 448.565 537.338C445.434 537.338 442.896 539.876 442.896 543.008C442.896 546.139 445.434 548.677 448.565 548.677Z" fill="white"/>
<path d="M281.864 585.219C284.995 585.219 287.533 582.68 287.533 579.549C287.533 576.418 284.995 573.879 281.864 573.879C278.733 573.879 276.195 576.418 276.195 579.549C276.195 582.68 278.733 585.219 281.864 585.219Z" fill="#292929"/>
<path d="M448.565 585.219C451.696 585.219 454.234 582.68 454.234 579.549C454.234 576.418 451.696 573.879 448.565 573.879C445.434 573.879 442.896 576.418 442.896 579.549C442.896 582.68 445.434 585.219 448.565 585.219Z" fill="#292929"/>
<path d="M123.978 147.212C111.517 156.572 103.463 171.472 103.463 188.256" stroke="black" stroke-miterlimit="10"/>
<path d="M166.856 136.953H154.75C143.205 136.953 132.55 140.765 123.978 147.203" stroke="white" stroke-miterlimit="10"/>
<path d="M321.226 271.21C318.634 265.359 317.191 258.885 317.191 252.075V42.4878C317.191 19.2561 298.361 0.432129 275.142 0.432129C251.914 0.432129 233.093 19.2647 233.093 42.4878V58.6066H177.71C172.499 58.6066 168.282 62.8329 168.282 68.0358C168.282 73.2474 172.508 77.4651 177.71 77.4651H223.207C228.668 77.4651 233.093 81.8902 233.093 87.3524C233.093 92.8146 228.668 97.2397 223.207 97.2397H178.194C172.698 97.2397 168.231 101.665 168.17 107.153C168.11 112.728 172.612 117.282 178.194 117.282H223.147C228.539 117.282 232.92 121.621 232.981 127.005C233.041 132.476 228.617 136.953 223.147 136.953H166.865" stroke="black" stroke-miterlimit="10"/>
<path d="M411.616 89.5908V252.075C411.616 278.15 390.479 299.299 364.399 299.299C345.137 299.299 328.572 287.761 321.227 271.218" stroke="white" stroke-miterlimit="10"/>
<path d="M427.515 317.898V45.8932C427.515 41.5027 423.955 37.9419 419.565 37.9419C415.175 37.9419 411.615 41.5027 411.615 45.8932V89.591" stroke="black" stroke-miterlimit="10"/>
<path d="M218.921 188.257H103.463" stroke="black" stroke-miterlimit="10"/>
<path d="M246.694 474.764C221.928 490.347 192.616 499.37 161.187 499.37C72.4058 499.361 0.431641 427.376 0.431641 338.58C0.431641 270.104 43.2325 211.627 103.532 188.447" stroke="black" stroke-miterlimit="10"/>
<path d="M276.196 582.064C271.685 584.959 268.695 590.024 268.695 595.78C268.695 604.777 275.989 612.063 284.976 612.063H534.081C542.809 612.063 549.878 619.133 549.878 627.862C549.878 633.221 545.531 637.568 540.173 637.568" stroke="black" stroke-miterlimit="10"/>
<g style="mix-blend-mode:exclusion">
<path d="M287.533 579.497H284.984C281.752 579.497 278.736 580.439 276.204 582.064" stroke="white" stroke-miterlimit="10"/>
</g>
<path d="M443.346 579.186C442.257 579.393 441.134 579.497 439.976 579.497H287.533" stroke="black" stroke-miterlimit="10"/>
<g style="mix-blend-mode:exclusion">
<path d="M451.988 574.977C449.586 577.086 446.613 578.572 443.338 579.186" stroke="white" stroke-miterlimit="10"/>
</g>
<path d="M451.987 547.519C455.807 550.864 458.218 555.773 458.218 561.252C458.218 566.723 455.807 571.632 451.987 574.977" stroke="black" stroke-miterlimit="10"/>
<g style="mix-blend-mode:exclusion">
<path d="M427.516 543.007H439.977C444.574 543.007 448.773 544.71 451.988 547.519" stroke="white" stroke-miterlimit="10"/>
</g>
<path d="M297.895 543.007H427.515" stroke="black" stroke-miterlimit="10"/>
<g style="mix-blend-mode:exclusion">
<path d="M297.895 506.466H286.963C276.879 506.466 268.695 514.642 268.695 524.737C268.695 534.823 276.87 543.007 286.963 543.007H297.895" stroke="white" stroke-miterlimit="10"/>
</g>
<path d="M427.515 506.466H297.895" stroke="black" stroke-miterlimit="10"/>
<g style="mix-blend-mode:exclusion">
<path d="M427.516 466.856H438.412C449.352 466.856 458.218 475.723 458.218 486.665C458.218 497.607 449.352 506.474 438.412 506.474H427.516" stroke="white" stroke-miterlimit="10"/>
</g>
<path d="M297.895 466.856H427.515" stroke="black" stroke-miterlimit="10"/>
<g style="mix-blend-mode:exclusion">
<path d="M297.895 427.238H288.501C277.561 427.238 268.695 436.105 268.695 447.047C268.695 457.989 277.561 466.856 288.501 466.856H297.895" stroke="white" stroke-miterlimit="10"/>
</g>
<path d="M427.515 427.238H297.895" stroke="black" stroke-miterlimit="10"/>
<g style="mix-blend-mode:exclusion">
<path d="M427.516 390.696H439.951C450.035 390.696 458.218 398.872 458.218 408.967C458.218 419.053 450.044 427.237 439.951 427.237H427.516" stroke="white" stroke-miterlimit="10"/>
</g>
<path d="M297.895 390.696H427.515" stroke="black" stroke-miterlimit="10"/>
<g style="mix-blend-mode:exclusion">
<path d="M297.895 352.953H287.568C277.147 352.953 268.695 361.406 268.695 371.829C268.695 382.252 277.147 390.705 287.568 390.705H297.895" stroke="white" stroke-miterlimit="10"/>
</g>
<path d="M427.515 352.953H297.895" stroke="black" stroke-miterlimit="10"/>
<g style="mix-blend-mode:exclusion">
<path d="M281.864 317.622H440.546C450.302 317.622 458.209 325.53 458.209 335.287C458.209 345.045 450.302 352.953 440.546 352.953H427.506" stroke="white" stroke-miterlimit="10"/>
</g>
<path d="M557.136 447.54C540.726 447.54 527.427 460.841 527.427 477.253V624.82C527.427 631.864 533.139 637.577 540.181 637.577" stroke="black" stroke-miterlimit="10"/>
</g>
<defs>
<clipPath id="clip0_90_1881">
<rect width="752" height="638" fill="white"/>
</clipPath>
</defs>
</svg>
