<svg width="1331" height="888" viewBox="0 0 1331 888" fill="none" xmlns="http://www.w3.org/2000/svg">
<path d="M722.26 328.65H576.61V215.38L649.44 141.58L722.26 215.38V328.65Z" fill="#F8F5F0"/>
<path d="M649.44 328.65V652.91" stroke="#F8F5F0" stroke-miterlimit="10"/>
<path d="M588.69 313.35L649.32 264.46L710.19 313.55" fill="#F8F5F0"/>
<path d="M588.69 313.35L649.32 264.46L710.19 313.55" stroke="black" stroke-miterlimit="10"/>
<path d="M649.44 161.5V264.46" stroke="black" stroke-miterlimit="10"/>
<path d="M576.61 725.74C576.61 685.52 609.22 652.91 649.44 652.91C689.66 652.91 722.27 685.52 722.27 725.74V748.93H576.62V725.74H576.61Z" stroke="#F8F5F0" stroke-miterlimit="10"/>
<path d="M649.44 652.8C653.94 652.8 658.33 653.23 662.6 654.01C662.64 653.61 662.66 653.21 662.66 652.8C662.66 645.5 656.74 639.58 649.44 639.58C642.14 639.58 636.22 645.5 636.22 652.8C636.22 653.21 636.24 653.61 636.28 654.01C640.55 653.23 644.95 652.8 649.44 652.8V652.8Z" fill="#F8F5F0" stroke="#F8F5F0" stroke-miterlimit="10"/>
<path d="M722.26 725.21H576.61V755.57H722.26V725.21Z" fill="#F8F5F0" stroke="#F8F5F0" stroke-miterlimit="10"/>
<path d="M588.69 551.579C616.481 551.579 639.01 529.05 639.01 501.259C639.01 473.468 616.481 450.939 588.69 450.939C560.899 450.939 538.37 473.468 538.37 501.259C538.37 529.05 560.899 551.579 588.69 551.579Z" fill="#F8F5F0" stroke="#F8F5F0" stroke-miterlimit="10"/>
<path d="M753.25 591.85C803.282 591.85 843.84 551.291 843.84 501.26C843.84 451.228 803.282 410.67 753.25 410.67C703.219 410.67 662.66 451.228 662.66 501.26C662.66 551.291 703.219 591.85 753.25 591.85Z" fill="#F8F5F0" stroke="#F8F5F0" stroke-miterlimit="10"/>
<path d="M733.05 342.5H565.83V217.66L629.49 143.83C641.13 134.44 657.75 134.44 669.4 143.83L733.06 217.66V342.5H733.05Z" fill="#F8F5F0"/>
<path d="M636.09 516.74C627.52 563.39 569.7 604.31 514.35 604.31C442.95 604.31 385.06 545.99 385.06 474.04C385.06 458.08 387.91 442.79 393.12 428.66C398.33 414.53 406.92 400.32 417.27 388.44L602.98 175.1" stroke="#F8F5F0" stroke-miterlimit="10"/>
<path d="M666.58 522.019C671.03 562.099 728.33 605.989 783.67 605.989C855.07 605.989 912.96 547.669 912.96 475.719C912.96 445.929 902.48 415.089 885.78 393.149L694.49 173.399" stroke="#F8F5F0" stroke-miterlimit="10"/>
<path d="M786.06 725.209H512.82V755.569H786.06V725.209Z" fill="#F8F5F0" stroke="#F8F5F0" stroke-miterlimit="10"/>
<path d="M310.34 123.159V14.1494L240.14 123.159" stroke="#F8F5F0" stroke-miterlimit="10"/>
<path d="M310.34 72.6094H272.69" stroke="#F8F5F0" stroke-miterlimit="10"/>
<path d="M310.34 123.159H286.22" stroke="#F8F5F0" stroke-miterlimit="10"/>
<path d="M221.32 123.159H258.97" stroke="#F8F5F0" stroke-miterlimit="10"/>
<path d="M944.05 738.439V847.449L1014.24 738.439" stroke="#F8F5F0" stroke-miterlimit="10"/>
<path d="M944.05 788.979H981.7" stroke="#F8F5F0" stroke-miterlimit="10"/>
<path d="M944.05 738.439H968.16" stroke="#F8F5F0" stroke-miterlimit="10"/>
<path d="M995.42 738.439H1033.07" stroke="#F8F5F0" stroke-miterlimit="10"/>
<path d="M850.68 352.05C823.43 375.83 782.06 373.02 758.28 345.77C734.5 318.52 737.31 277.15 764.56 253.37" fill="#F8F5F0"/>
<path d="M512.82 278.67V212.98C512.82 205.87 518.63 200.13 525.74 200.21C532.74 200.29 538.37 205.98 538.37 212.98V601.84" stroke="#F8F5F0" stroke-miterlimit="10"/>
<path d="M538.37 601.84C530.42 603.45 522.36 604.3 514.35 604.3C442.95 604.3 385.06 545.98 385.06 474.03C385.06 458.07 387.91 442.78 393.12 428.65C398.57 413.86 406.92 400.31 417.27 388.43L538.37 249.32V601.85V601.84Z" fill="#F8F5F0"/>
<path d="M764.56 253.371C791.81 229.591 833.18 232.401 856.96 259.651C867.16 271.341 872.47 285.621 873.05 300.001" stroke="#F8F5F0" stroke-miterlimit="10"/>
<path d="M873.11 524.94V300" stroke="#F8F5F0" stroke-miterlimit="10"/>
<path d="M428.51 482.8C435.027 482.8 440.31 477.517 440.31 471C440.31 464.483 435.027 459.2 428.51 459.2C421.993 459.2 416.71 464.483 416.71 471C416.71 477.517 421.993 482.8 428.51 482.8Z" fill="black"/>
<path d="M452.11 538.25C458.627 538.25 463.91 532.967 463.91 526.45C463.91 519.933 458.627 514.65 452.11 514.65C445.593 514.65 440.31 519.933 440.31 526.45C440.31 532.967 445.593 538.25 452.11 538.25Z" fill="black"/>
<path d="M649.44 711.57C661.568 711.57 671.4 701.739 671.4 689.61C671.4 677.482 661.568 667.65 649.44 667.65C637.312 667.65 627.48 677.482 627.48 689.61C627.48 701.739 637.312 711.57 649.44 711.57Z" fill="#F8F5F0"/>
<path d="M617.93 407.141C617.93 424.541 632.04 438.651 649.44 438.651C666.84 438.651 680.95 424.541 680.95 407.141H617.93Z" fill="#F8F5F0"/>
<path d="M733.05 383.181H608.85C585.09 383.181 565.83 363.921 565.83 340.161V217.661L629.49 143.831C641.13 134.441 657.75 134.441 669.4 143.831L733.06 217.661V383.181H733.05Z" fill="#F8F5F0"/>
<path d="M850.68 352.05V295.09C850.68 283.35 841.16 273.83 829.42 273.83C817.68 273.83 808.16 283.35 808.16 295.09V398.91C808.16 407.55 815.16 414.55 823.8 414.55C832.44 414.55 839.44 407.55 839.44 398.91V398.97C839.44 390.33 832.44 383.33 823.8 383.33L733.04 383.18C733.04 395.8 722.26 407.22 697.94 407.22H600.92C584.06 407.22 569.09 395.87 559.72 383.33H538.37" stroke="#F8F5F0" stroke-miterlimit="10"/>
<path d="M740.42 698.43C745.291 698.43 749.24 694.481 749.24 689.61C749.24 684.739 745.291 680.79 740.42 680.79C735.549 680.79 731.6 684.739 731.6 689.61C731.6 694.481 735.549 698.43 740.42 698.43Z" fill="#F8F5F0"/>
<path d="M558.45 698.43C563.321 698.43 567.27 694.481 567.27 689.61C567.27 684.739 563.321 680.79 558.45 680.79C553.579 680.79 549.63 684.739 549.63 689.61C549.63 694.481 553.579 698.43 558.45 698.43Z" fill="#F8F5F0"/>
<path d="M740.42 689.61H558.45" stroke="#F8F5F0" stroke-miterlimit="10"/>
<path d="M538.37 383.33H512.82C467.68 383.33 431.08 419.92 431.08 465.07V469.84C431.08 514.98 467.67 551.58 512.82 551.58V278.67" stroke="black" stroke-miterlimit="10"/>
<path d="M586.51 582.27C591.21 579.22 593.71 573.56 593.71 567.57C593.71 559.24 587.82 551.87 579.88 550.36C556.28 546.15 538.37 525.63 538.37 500.96C538.37 473.24 560.98 450.76 588.87 450.76C616.76 450.76 639.37 473.23 639.37 500.96C639.37 506.4 638.17 511.54 636.89 516.55C630.45 541.76 612.49 565.99 586.51 582.28" fill="#F8F5F0"/>
<path d="M873.11 541.74C881.113 541.74 887.6 535.252 887.6 527.25C887.6 519.247 881.113 512.76 873.11 512.76C865.108 512.76 858.62 519.247 858.62 527.25C858.62 535.252 865.108 541.74 873.11 541.74Z" fill="#F8F5F0" stroke="#F8F5F0" stroke-miterlimit="10"/>
<path d="M873.06 541.74C881.063 541.74 887.55 535.252 887.55 527.25C887.55 519.247 881.063 512.76 873.06 512.76C865.057 512.76 858.57 519.247 858.57 527.25C858.57 535.252 865.057 541.74 873.06 541.74Z" fill="#F8F5F0" stroke="#F8F5F0" stroke-miterlimit="10"/>
<path d="M658.08 68.1403C664.255 68.1403 669.26 63.1348 669.26 56.9603C669.26 50.7857 664.255 45.7803 658.08 45.7803C651.906 45.7803 646.9 50.7857 646.9 56.9603C646.9 63.1348 651.906 68.1403 658.08 68.1403Z" fill="#F8F5F0" stroke="#F8F5F0" stroke-miterlimit="10"/>
<path d="M666.58 522.02C671.03 562.1 728.33 605.99 783.67 605.99C855.07 605.99 912.96 547.67 912.96 475.72C912.96 445.93 902.48 415.09 885.78 393.15L694.49 173.4L572.78 29.9302C568.37 24.7402 561.91 21.7402 555.1 21.7402H551.87C539.06 21.7402 528.68 32.1202 528.68 44.9302C528.68 57.7402 539.06 68.1202 551.87 68.1202H659.63" stroke="#F8F5F0" stroke-miterlimit="10"/>
<path d="M786.06 725.32V688.51H749.25C769.58 688.51 786.06 704.99 786.06 725.32V725.32Z" fill="#F8F5F0"/>
<path d="M549.63 688.51H512.82V725.32C512.82 704.99 529.3 688.51 549.63 688.51V688.51Z" fill="#F8F5F0"/>
<path d="M344.13 557.11C344.13 620.79 292.51 672.41 228.83 672.41C165.15 672.41 113.53 620.79 113.53 557.11L228.83 672.41L113.53 764.32C113.53 828 165.15 879.62 228.83 879.62C292.51 879.62 344.13 828 344.13 764.32V557.12" stroke="#F8F5F0" stroke-miterlimit="10"/>
<path d="M113.53 764C138.8 795.84 185.1 801.17 216.94 775.9C248.78 750.63 254.11 704.33 228.84 672.49L113.52 764H113.53Z" fill="#F8F5F0"/>
<path d="M959.66 336.34C959.66 272.66 1011.28 221.04 1074.96 221.04C1138.64 221.04 1190.26 272.66 1190.26 336.34L1074.96 221.04L1190.26 129.13C1190.26 65.4501 1138.64 13.8301 1074.96 13.8301C1011.28 13.8301 959.66 65.4501 959.66 129.13V336.33V336.34Z" stroke="#F8F5F0" stroke-miterlimit="10"/>
<path d="M1190.26 129.45C1164.99 97.6105 1118.69 92.2805 1086.85 117.55C1055.01 142.82 1049.68 189.12 1074.95 220.96L1190.27 129.45H1190.26Z" fill="#F8F5F0"/>
<path d="M228.83 581.701C242.411 581.701 253.42 570.691 253.42 557.11C253.42 543.53 242.411 532.521 228.83 532.521C215.249 532.521 204.24 543.53 204.24 557.11C204.24 570.691 215.249 581.701 228.83 581.701Z" fill="#F8F5F0"/>
<path d="M221.2 123.16C221.2 112.7 229.68 104.21 240.15 104.21C250.62 104.21 259.1 112.69 259.1 123.16" fill="#F8F5F0"/>
<path d="M1033.19 738.44C1033.19 748.9 1024.71 757.39 1014.24 757.39C1003.77 757.39 995.29 748.91 995.29 738.44" fill="#F8F5F0"/>
<path d="M1071.47 360.93C1085.05 360.93 1096.06 349.921 1096.06 336.34C1096.06 322.759 1085.05 311.75 1071.47 311.75C1057.89 311.75 1046.88 322.759 1046.88 336.34C1046.88 349.921 1057.89 360.93 1071.47 360.93Z" fill="#F8F5F0"/>
<path d="M1075.24 451.72C1075.24 388 1023.58 336.34 959.86 336.34" stroke="#F8F5F0" stroke-miterlimit="10"/>
<path d="M344.13 558.01C344.13 494.29 292.55 441.74 228.83 441.74H205.39C187.8 441.74 173.53 427.48 173.53 409.88C173.53 392.28 187.79 378.02 205.39 378.02H237.25C254.84 378.02 269.11 363.76 269.11 346.16C269.11 328.56 254.85 314.3 237.25 314.3H205.39C187.8 314.3 173.53 300.04 173.53 282.44C173.53 264.84 187.79 250.58 205.39 250.58H237.25C254.84 250.58 269.11 236.32 269.11 218.72C269.11 201.12 254.85 186.86 237.25 186.86H205.39C187.8 186.86 173.53 172.6 173.53 155C173.53 137.4 187.79 123.14 205.39 123.14H339.21" stroke="#F8F5F0" stroke-miterlimit="10"/>
<path d="M1075.24 451.72C1075.24 469.31 1060.98 483.58 1043.38 483.58H1011.52C993.93 483.58 979.66 497.84 979.66 515.44C979.66 533.04 993.92 547.3 1011.52 547.3H1043.38C1060.97 547.3 1075.24 561.56 1075.24 579.16C1075.24 596.76 1060.98 611.02 1043.38 611.02H1011.52C993.93 611.02 979.66 625.28 979.66 642.88C979.66 660.48 993.92 674.74 1011.52 674.74H1043.38C1060.97 674.74 1075.24 689 1075.24 706.6C1075.24 724.2 1060.98 738.46 1043.38 738.46H914.87" stroke="#F8F5F0" stroke-miterlimit="10"/>
<path d="M269.11 218.73V448.97" stroke="#F8F5F0" stroke-miterlimit="10"/>
<path d="M979.53 337.94V642.86" stroke="#F8F5F0" stroke-miterlimit="10"/>
<path d="M944.05 738.44H914.87V847.45H944.05V738.44Z" fill="#F8F5F0"/>
<path d="M339.21 14.1504H310.03V123.16H339.21V14.1504Z" fill="#F8F5F0"/>
<path d="M1 847.45V476.73C1 460.16 14.43 446.73 31 446.73H80.84V101.84" stroke="#F8F5F0" stroke-miterlimit="10"/>
<path d="M1 807.08V887.82H81.74C37.15 887.82 1 851.67 1 807.08Z" fill="#F8F5F0"/>
<path d="M32.36 446.88H80.84V398.4C80.84 425.17 59.14 446.88 32.36 446.88Z" fill="#F8F5F0"/>
<path d="M80.54 70.97C80.54 57.99 69.79 47.24 56.81 47.24C43.83 47.24 33.53 36.49 33.53 23.51C33.53 10.53 44.05 0 57.04 0C70.02 0 80.55 10.52 80.55 23.51V70.98L80.54 70.97Z" fill="#F8F5F0"/>
<path d="M80.69 114.03C80.69 105.55 87.7101 98.5402 96.1801 98.5402C104.65 98.5402 111.38 91.5202 111.38 83.0502C111.38 74.5802 104.51 67.7002 96.03 67.7002C87.55 67.7002 80.6801 74.5702 80.6801 83.0502V114.04L80.69 114.03Z" fill="#F8F5F0"/>
<path d="M80.54 166.18C80.54 153.2 69.79 142.45 56.81 142.45C43.83 142.45 33.53 131.7 33.53 118.72C33.53 105.74 44.05 95.21 57.04 95.21C70.02 95.21 80.55 105.73 80.55 118.72V166.19L80.54 166.18Z" fill="#F8F5F0"/>
<path d="M80.6899 212.83C80.6899 204.35 87.7099 197.34 96.1799 197.34C104.65 197.34 111.38 190.32 111.38 181.85C111.38 173.38 104.51 166.5 96.0299 166.5C87.5499 166.5 80.6799 173.37 80.6799 181.85V212.84L80.6899 212.83Z" fill="#F8F5F0"/>
<path d="M80.54 261.38C80.54 248.4 69.79 237.65 56.81 237.65C43.83 237.65 33.53 226.9 33.53 213.92C33.53 200.94 44.05 190.41 57.04 190.41C70.02 190.41 80.55 200.93 80.55 213.92V261.39L80.54 261.38Z" fill="#F8F5F0"/>
<path d="M80.6899 311.64C80.6899 303.16 87.7099 296.15 96.1799 296.15C104.65 296.15 111.38 289.13 111.38 280.66C111.38 272.19 104.51 265.31 96.0299 265.31C87.5499 265.31 80.6799 272.18 80.6799 280.66V311.65L80.6899 311.64Z" fill="#F8F5F0"/>
<path d="M1204.06 847.45V476.73C1204.06 460.16 1217.49 446.73 1234.06 446.73H1283.9V101.84" stroke="#F8F5F0" stroke-miterlimit="10"/>
<path d="M1204.06 807.08V887.82H1284.8C1240.21 887.82 1204.06 851.67 1204.06 807.08Z" fill="#F8F5F0"/>
<path d="M1235.41 446.879H1283.89V398.399C1283.89 425.169 1262.19 446.879 1235.41 446.879Z" fill="#F8F5F0"/>
<path d="M1283.96 70.97C1283.96 57.99 1294.71 47.24 1307.69 47.24C1320.67 47.24 1330.97 36.49 1330.97 23.51C1330.97 10.53 1320.45 0 1307.46 0C1294.48 0 1283.95 10.52 1283.95 23.51V70.98L1283.96 70.97Z" fill="#F8F5F0"/>
<path d="M1283.82 114.03C1283.82 105.55 1276.8 98.5402 1268.33 98.5402C1259.86 98.5402 1253.13 91.5202 1253.13 83.0502C1253.13 74.5802 1260 67.7002 1268.48 67.7002C1276.96 67.7002 1283.83 74.5702 1283.83 83.0502V114.04L1283.82 114.03Z" fill="#F8F5F0"/>
<path d="M1283.96 166.18C1283.96 153.2 1294.71 142.45 1307.69 142.45C1320.67 142.45 1330.97 131.7 1330.97 118.72C1330.97 105.74 1320.45 95.21 1307.46 95.21C1294.48 95.21 1283.95 105.73 1283.95 118.72V166.19L1283.96 166.18Z" fill="#F8F5F0"/>
<path d="M1283.82 212.83C1283.82 204.35 1276.8 197.34 1268.33 197.34C1259.86 197.34 1253.13 190.32 1253.13 181.85C1253.13 173.37 1260 166.5 1268.48 166.5C1276.96 166.5 1283.83 173.37 1283.83 181.85V212.84L1283.82 212.83Z" fill="#F8F5F0"/>
<path d="M1283.96 261.38C1283.96 248.4 1294.71 237.65 1307.69 237.65C1320.67 237.65 1330.97 226.9 1330.97 213.92C1330.97 200.94 1320.45 190.41 1307.46 190.41C1294.48 190.41 1283.95 200.93 1283.95 213.92V261.39L1283.96 261.38Z" fill="#F8F5F0"/>
<path d="M1283.82 311.64C1283.82 303.16 1276.8 296.15 1268.33 296.15C1259.86 296.15 1253.13 289.13 1253.13 280.66C1253.13 272.19 1260 265.31 1268.48 265.31C1276.96 265.31 1283.83 272.18 1283.83 280.66V311.65L1283.82 311.64Z" fill="#F8F5F0"/>
</svg>
