<svg width="813" height="838" viewBox="0 0 813 838" fill="none" xmlns="http://www.w3.org/2000/svg">
<path d="M501.26 316.82H355.61V203.55L428.44 129.75L501.26 203.55V316.82Z" fill="#F8F5F0"/>
<path d="M428.44 316.82V641.08" stroke="#F8F5F0" stroke-miterlimit="10"/>
<path d="M367.69 301.52L428.32 252.63L489.19 301.72" fill="#F8F5F0"/>
<path d="M367.69 301.52L428.32 252.63L489.19 301.72" stroke="black" stroke-miterlimit="10"/>
<path d="M428.44 149.67V252.63" stroke="black" stroke-miterlimit="10"/>
<path d="M355.61 713.91C355.61 673.69 388.22 641.08 428.44 641.08C468.66 641.08 501.27 673.69 501.27 713.91V737.1H355.62V713.91H355.61Z" stroke="#F8F5F0" stroke-miterlimit="10"/>
<path d="M428.44 640.97C432.94 640.97 437.33 641.4 441.6 642.18C441.64 641.78 441.66 641.38 441.66 640.97C441.66 633.67 435.74 627.75 428.44 627.75C421.14 627.75 415.22 633.67 415.22 640.97C415.22 641.38 415.24 641.78 415.28 642.18C419.55 641.4 423.95 640.97 428.44 640.97V640.97Z" fill="#F8F5F0" stroke="#F8F5F0" stroke-miterlimit="10"/>
<path d="M501.26 713.38H355.61V743.74H501.26V713.38Z" fill="#F8F5F0" stroke="#F8F5F0" stroke-miterlimit="10"/>
<path d="M367.69 539.749C395.481 539.749 418.01 517.22 418.01 489.429C418.01 461.638 395.481 439.109 367.69 439.109C339.899 439.109 317.37 461.638 317.37 489.429C317.37 517.22 339.899 539.749 367.69 539.749Z" fill="#F8F5F0" stroke="#F8F5F0" stroke-miterlimit="10"/>
<path d="M532.25 580.02C582.282 580.02 622.84 539.461 622.84 489.43C622.84 439.398 582.282 398.84 532.25 398.84C482.219 398.84 441.66 439.398 441.66 489.43C441.66 539.461 482.219 580.02 532.25 580.02Z" fill="#F8F5F0" stroke="#F8F5F0" stroke-miterlimit="10"/>
<path d="M512.05 330.67H344.83V205.83L408.49 132C420.13 122.61 436.75 122.61 448.4 132L512.06 205.83V330.67H512.05Z" fill="#F8F5F0"/>
<path d="M415.09 504.91C406.52 551.56 348.7 592.48 293.35 592.48C221.95 592.48 164.06 534.16 164.06 462.21C164.06 446.25 166.91 430.96 172.12 416.83C177.33 402.7 185.92 388.49 196.27 376.61L381.98 163.27" stroke="#F8F5F0" stroke-miterlimit="10"/>
<path d="M445.58 510.189C450.03 550.269 507.33 594.159 562.67 594.159C634.07 594.159 691.96 535.839 691.96 463.889C691.96 434.099 681.48 403.259 664.78 381.319L473.49 161.569" stroke="#F8F5F0" stroke-miterlimit="10"/>
<path d="M565.06 713.379H291.82V743.739H565.06V713.379Z" fill="#F8F5F0" stroke="#F8F5F0" stroke-miterlimit="10"/>
<path d="M89.3401 111.329V2.31934L19.1401 111.329" stroke="#F8F5F0" stroke-miterlimit="10"/>
<path d="M89.3401 60.7793H51.6901" stroke="#F8F5F0" stroke-miterlimit="10"/>
<path d="M89.3401 111.329H65.2201" stroke="#F8F5F0" stroke-miterlimit="10"/>
<path d="M0.320068 111.329H37.9701" stroke="#F8F5F0" stroke-miterlimit="10"/>
<path d="M723.05 726.609V835.619L793.24 726.609" stroke="#F8F5F0" stroke-miterlimit="10"/>
<path d="M723.05 777.149H760.7" stroke="#F8F5F0" stroke-miterlimit="10"/>
<path d="M723.05 726.609H747.16" stroke="#F8F5F0" stroke-miterlimit="10"/>
<path d="M774.42 726.609H812.07" stroke="#F8F5F0" stroke-miterlimit="10"/>
<path d="M629.68 340.22C602.43 364 561.06 361.19 537.28 333.94C513.5 306.69 516.31 265.32 543.56 241.54" fill="#F8F5F0"/>
<path d="M291.82 266.84V201.15C291.82 194.04 297.63 188.3 304.74 188.38C311.74 188.46 317.37 194.15 317.37 201.15V590.01" stroke="#F8F5F0" stroke-miterlimit="10"/>
<path d="M317.37 590.01C309.42 591.62 301.36 592.47 293.35 592.47C221.95 592.47 164.06 534.15 164.06 462.2C164.06 446.24 166.91 430.95 172.12 416.82C177.57 402.03 185.92 388.48 196.27 376.6L317.37 237.49V590.02V590.01Z" fill="#F8F5F0"/>
<path d="M543.56 241.54C570.81 217.76 612.18 220.57 635.96 247.82C646.16 259.51 651.47 273.79 652.05 288.17" stroke="#F8F5F0" stroke-miterlimit="10"/>
<path d="M652.11 513.11V288.17" stroke="#F8F5F0" stroke-miterlimit="10"/>
<path d="M207.51 470.97C214.027 470.97 219.31 465.687 219.31 459.17C219.31 452.653 214.027 447.37 207.51 447.37C200.993 447.37 195.71 452.653 195.71 459.17C195.71 465.687 200.993 470.97 207.51 470.97Z" fill="black"/>
<path d="M231.11 526.42C237.627 526.42 242.91 521.137 242.91 514.62C242.91 508.103 237.627 502.82 231.11 502.82C224.593 502.82 219.31 508.103 219.31 514.62C219.31 521.137 224.593 526.42 231.11 526.42Z" fill="black"/>
<path d="M428.44 699.74C440.568 699.74 450.4 689.908 450.4 677.78C450.4 665.652 440.568 655.82 428.44 655.82C416.312 655.82 406.48 665.652 406.48 677.78C406.48 689.908 416.312 699.74 428.44 699.74Z" fill="#F8F5F0"/>
<path d="M396.93 395.311C396.93 412.711 411.04 426.821 428.44 426.821C445.84 426.821 459.95 412.711 459.95 395.311H396.93Z" fill="#F8F5F0"/>
<path d="M512.05 371.351H387.85C364.09 371.351 344.83 352.09 344.83 328.33V205.83L408.49 132.001C420.13 122.611 436.75 122.611 448.4 132.001L512.06 205.83V371.351H512.05Z" fill="#F8F5F0"/>
<path d="M629.68 340.22V283.26C629.68 271.52 620.16 262 608.42 262C596.68 262 587.16 271.52 587.16 283.26V387.08C587.16 395.72 594.16 402.72 602.8 402.72C611.44 402.72 618.44 395.72 618.44 387.08V387.14C618.44 378.5 611.44 371.5 602.8 371.5L512.04 371.35C512.04 383.97 501.26 395.39 476.94 395.39H379.92C363.06 395.39 348.09 384.04 338.72 371.5H317.37" stroke="#F8F5F0" stroke-miterlimit="10"/>
<path d="M519.42 686.6C524.291 686.6 528.24 682.651 528.24 677.78C528.24 672.909 524.291 668.96 519.42 668.96C514.549 668.96 510.6 672.909 510.6 677.78C510.6 682.651 514.549 686.6 519.42 686.6Z" fill="#F8F5F0"/>
<path d="M337.45 686.6C342.321 686.6 346.27 682.651 346.27 677.78C346.27 672.909 342.321 668.96 337.45 668.96C332.579 668.96 328.63 672.909 328.63 677.78C328.63 682.651 332.579 686.6 337.45 686.6Z" fill="#F8F5F0"/>
<path d="M519.42 677.78H337.45" stroke="#F8F5F0" stroke-miterlimit="10"/>
<path d="M317.37 371.5H291.82C246.68 371.5 210.08 408.09 210.08 453.24V458.01C210.08 503.15 246.67 539.75 291.82 539.75V266.84" stroke="black" stroke-miterlimit="10"/>
<path d="M365.51 570.44C370.21 567.39 372.71 561.73 372.71 555.74C372.71 547.41 366.82 540.04 358.88 538.53C335.28 534.32 317.37 513.8 317.37 489.13C317.37 461.41 339.98 438.93 367.87 438.93C395.76 438.93 418.37 461.4 418.37 489.13C418.37 494.57 417.17 499.71 415.89 504.72C409.45 529.93 391.49 554.16 365.51 570.45" fill="#F8F5F0"/>
<path d="M652.11 529.91C660.113 529.91 666.6 523.422 666.6 515.42C666.6 507.417 660.113 500.93 652.11 500.93C644.108 500.93 637.62 507.417 637.62 515.42C637.62 523.422 644.108 529.91 652.11 529.91Z" fill="#F8F5F0" stroke="#F8F5F0" stroke-miterlimit="10"/>
<path d="M652.06 529.91C660.063 529.91 666.55 523.422 666.55 515.42C666.55 507.417 660.063 500.93 652.06 500.93C644.057 500.93 637.57 507.417 637.57 515.42C637.57 523.422 644.057 529.91 652.06 529.91Z" fill="#F8F5F0" stroke="#F8F5F0" stroke-miterlimit="10"/>
<path d="M437.08 56.3102C443.255 56.3102 448.26 51.3047 448.26 45.1302C448.26 38.9557 443.255 33.9502 437.08 33.9502C430.906 33.9502 425.9 38.9557 425.9 45.1302C425.9 51.3047 430.906 56.3102 437.08 56.3102Z" fill="#F8F5F0" stroke="#F8F5F0" stroke-miterlimit="10"/>
<path d="M445.58 510.19C450.03 550.27 507.33 594.16 562.67 594.16C634.07 594.16 691.96 535.84 691.96 463.89C691.96 434.1 681.48 403.26 664.78 381.32L473.49 161.57L351.78 18.1002C347.37 12.9102 340.91 9.91016 334.1 9.91016H330.87C318.06 9.91016 307.68 20.2902 307.68 33.1002C307.68 45.9102 318.06 56.2902 330.87 56.2902H438.63" stroke="#F8F5F0" stroke-miterlimit="10"/>
<path d="M565.06 713.49V676.68H528.25C548.58 676.68 565.06 693.16 565.06 713.49V713.49Z" fill="#F8F5F0"/>
<path d="M328.63 676.68H291.82V713.49C291.82 693.16 308.3 676.68 328.63 676.68V676.68Z" fill="#F8F5F0"/>
</svg>
