<svg width="1078" height="869" viewBox="0 0 1078 869" fill="none" xmlns="http://www.w3.org/2000/svg">
<path d="M609.26 316.65H463.61V203.38L536.44 129.58L609.26 203.38V316.65Z" fill="#F8F5F0"/>
<path d="M536.44 316.65V640.91" stroke="#F8F5F0" stroke-miterlimit="10"/>
<path d="M475.69 301.35L536.32 252.46L597.19 301.55" fill="#F8F5F0"/>
<path d="M475.69 301.35L536.32 252.46L597.19 301.55" stroke="black" stroke-miterlimit="10"/>
<path d="M536.44 149.5V252.46" stroke="black" stroke-miterlimit="10"/>
<path d="M463.61 713.74C463.61 673.52 496.22 640.91 536.44 640.91C576.66 640.91 609.27 673.52 609.27 713.74V736.93H463.62V713.74H463.61Z" stroke="#F8F5F0" stroke-miterlimit="10"/>
<path d="M536.44 640.8C540.94 640.8 545.33 641.23 549.6 642.01C549.64 641.61 549.66 641.21 549.66 640.8C549.66 633.5 543.74 627.58 536.44 627.58C529.14 627.58 523.22 633.5 523.22 640.8C523.22 641.21 523.24 641.61 523.28 642.01C527.55 641.23 531.95 640.8 536.44 640.8V640.8Z" fill="#F8F5F0" stroke="#F8F5F0" stroke-miterlimit="10"/>
<path d="M609.26 713.21H463.61V743.57H609.26V713.21Z" fill="#F8F5F0" stroke="#F8F5F0" stroke-miterlimit="10"/>
<path d="M475.69 539.579C503.481 539.579 526.01 517.05 526.01 489.259C526.01 461.468 503.481 438.939 475.69 438.939C447.899 438.939 425.37 461.468 425.37 489.259C425.37 517.05 447.899 539.579 475.69 539.579Z" fill="#F8F5F0" stroke="#F8F5F0" stroke-miterlimit="10"/>
<path d="M640.25 579.85C690.282 579.85 730.84 539.291 730.84 489.26C730.84 439.228 690.282 398.67 640.25 398.67C590.219 398.67 549.66 439.228 549.66 489.26C549.66 539.291 590.219 579.85 640.25 579.85Z" fill="#F8F5F0" stroke="#F8F5F0" stroke-miterlimit="10"/>
<path d="M620.05 330.5H452.83V205.66L516.49 131.83C528.13 122.44 544.75 122.44 556.4 131.83L620.06 205.66V330.5H620.05Z" fill="#F8F5F0"/>
<path d="M523.09 504.74C514.52 551.39 456.7 592.31 401.35 592.31C329.95 592.31 272.06 533.99 272.06 462.04C272.06 446.08 274.91 430.79 280.12 416.66C285.33 402.53 293.92 388.32 304.27 376.44L489.98 163.1" stroke="#F8F5F0" stroke-miterlimit="10"/>
<path d="M553.58 510.019C558.03 550.099 615.33 593.989 670.67 593.989C742.07 593.989 799.96 535.669 799.96 463.719C799.96 433.929 789.48 403.089 772.78 381.149L581.49 161.399" stroke="#F8F5F0" stroke-miterlimit="10"/>
<path d="M673.06 713.209H399.82V743.569H673.06V713.209Z" fill="#F8F5F0" stroke="#F8F5F0" stroke-miterlimit="10"/>
<path d="M197.34 111.159V2.14941L127.14 111.159" stroke="#F8F5F0" stroke-miterlimit="10"/>
<path d="M197.34 60.6094H159.69" stroke="#F8F5F0" stroke-miterlimit="10"/>
<path d="M197.34 111.159H173.22" stroke="#F8F5F0" stroke-miterlimit="10"/>
<path d="M108.32 111.159H145.97" stroke="#F8F5F0" stroke-miterlimit="10"/>
<path d="M831.05 726.439V835.449L901.24 726.439" stroke="#F8F5F0" stroke-miterlimit="10"/>
<path d="M831.05 776.979H868.7" stroke="#F8F5F0" stroke-miterlimit="10"/>
<path d="M831.05 726.439H855.16" stroke="#F8F5F0" stroke-miterlimit="10"/>
<path d="M882.42 726.439H920.07" stroke="#F8F5F0" stroke-miterlimit="10"/>
<path d="M737.68 340.05C710.43 363.83 669.06 361.02 645.28 333.77C621.5 306.52 624.31 265.15 651.56 241.37" fill="#F8F5F0"/>
<path d="M399.82 266.67V200.98C399.82 193.87 405.63 188.13 412.74 188.21C419.74 188.29 425.37 193.98 425.37 200.98V589.84" stroke="#F8F5F0" stroke-miterlimit="10"/>
<path d="M425.37 589.84C417.42 591.45 409.36 592.3 401.35 592.3C329.95 592.3 272.06 533.98 272.06 462.03C272.06 446.07 274.91 430.78 280.12 416.65C285.57 401.86 293.92 388.31 304.27 376.43L425.37 237.32V589.85V589.84Z" fill="#F8F5F0"/>
<path d="M651.56 241.371C678.81 217.591 720.18 220.401 743.96 247.651C754.16 259.341 759.47 273.621 760.05 288.001" stroke="#F8F5F0" stroke-miterlimit="10"/>
<path d="M760.11 512.94V288" stroke="#F8F5F0" stroke-miterlimit="10"/>
<path d="M315.51 470.8C322.027 470.8 327.31 465.517 327.31 459C327.31 452.483 322.027 447.2 315.51 447.2C308.993 447.2 303.71 452.483 303.71 459C303.71 465.517 308.993 470.8 315.51 470.8Z" fill="black"/>
<path d="M339.11 526.25C345.627 526.25 350.91 520.967 350.91 514.45C350.91 507.933 345.627 502.65 339.11 502.65C332.593 502.65 327.31 507.933 327.31 514.45C327.31 520.967 332.593 526.25 339.11 526.25Z" fill="black"/>
<path d="M536.44 699.57C548.568 699.57 558.4 689.739 558.4 677.61C558.4 665.482 548.568 655.65 536.44 655.65C524.312 655.65 514.48 665.482 514.48 677.61C514.48 689.739 524.312 699.57 536.44 699.57Z" fill="#F8F5F0"/>
<path d="M504.93 395.141C504.93 412.541 519.04 426.651 536.44 426.651C553.84 426.651 567.95 412.541 567.95 395.141H504.93Z" fill="#F8F5F0"/>
<path d="M620.05 371.181H495.85C472.09 371.181 452.83 351.921 452.83 328.161V205.661L516.49 131.831C528.13 122.441 544.75 122.441 556.4 131.831L620.06 205.661V371.181H620.05Z" fill="#F8F5F0"/>
<path d="M737.68 340.05V283.09C737.68 271.35 728.16 261.83 716.42 261.83C704.68 261.83 695.16 271.35 695.16 283.09V386.91C695.16 395.55 702.16 402.55 710.8 402.55C719.44 402.55 726.44 395.55 726.44 386.91V386.97C726.44 378.33 719.44 371.33 710.8 371.33L620.04 371.18C620.04 383.8 609.26 395.22 584.94 395.22H487.92C471.06 395.22 456.09 383.87 446.72 371.33H425.37" stroke="#F8F5F0" stroke-miterlimit="10"/>
<path d="M627.42 686.43C632.291 686.43 636.24 682.481 636.24 677.61C636.24 672.739 632.291 668.79 627.42 668.79C622.549 668.79 618.6 672.739 618.6 677.61C618.6 682.481 622.549 686.43 627.42 686.43Z" fill="#F8F5F0"/>
<path d="M445.45 686.43C450.321 686.43 454.27 682.481 454.27 677.61C454.27 672.739 450.321 668.79 445.45 668.79C440.579 668.79 436.63 672.739 436.63 677.61C436.63 682.481 440.579 686.43 445.45 686.43Z" fill="#F8F5F0"/>
<path d="M627.42 677.61H445.45" stroke="#F8F5F0" stroke-miterlimit="10"/>
<path d="M425.37 371.33H399.82C354.68 371.33 318.08 407.92 318.08 453.07V457.84C318.08 502.98 354.67 539.58 399.82 539.58V266.67" stroke="black" stroke-miterlimit="10"/>
<path d="M473.51 570.27C478.21 567.22 480.71 561.56 480.71 555.57C480.71 547.24 474.82 539.87 466.88 538.36C443.28 534.15 425.37 513.63 425.37 488.96C425.37 461.24 447.98 438.76 475.87 438.76C503.76 438.76 526.37 461.23 526.37 488.96C526.37 494.4 525.17 499.54 523.89 504.55C517.45 529.76 499.49 553.99 473.51 570.28" fill="#F8F5F0"/>
<path d="M760.11 529.74C768.113 529.74 774.6 523.252 774.6 515.25C774.6 507.247 768.113 500.76 760.11 500.76C752.108 500.76 745.62 507.247 745.62 515.25C745.62 523.252 752.108 529.74 760.11 529.74Z" fill="#F8F5F0" stroke="#F8F5F0" stroke-miterlimit="10"/>
<path d="M760.06 529.74C768.063 529.74 774.55 523.252 774.55 515.25C774.55 507.247 768.063 500.76 760.06 500.76C752.057 500.76 745.57 507.247 745.57 515.25C745.57 523.252 752.057 529.74 760.06 529.74Z" fill="#F8F5F0" stroke="#F8F5F0" stroke-miterlimit="10"/>
<path d="M545.08 56.1403C551.255 56.1403 556.26 51.1348 556.26 44.9603C556.26 38.7857 551.255 33.7803 545.08 33.7803C538.906 33.7803 533.9 38.7857 533.9 44.9603C533.9 51.1348 538.906 56.1403 545.08 56.1403Z" fill="#F8F5F0" stroke="#F8F5F0" stroke-miterlimit="10"/>
<path d="M553.58 510.02C558.03 550.1 615.33 593.99 670.67 593.99C742.07 593.99 799.96 535.67 799.96 463.72C799.96 433.93 789.48 403.09 772.78 381.15L581.49 161.4L459.78 17.9302C455.37 12.7402 448.91 9.74023 442.1 9.74023H438.87C426.06 9.74023 415.68 20.1202 415.68 32.9302C415.68 45.7402 426.06 56.1202 438.87 56.1202H546.63" stroke="#F8F5F0" stroke-miterlimit="10"/>
<path d="M673.06 713.32V676.51H636.25C656.58 676.51 673.06 692.99 673.06 713.32V713.32Z" fill="#F8F5F0"/>
<path d="M436.63 676.51H399.82V713.32C399.82 692.99 416.3 676.51 436.63 676.51V676.51Z" fill="#F8F5F0"/>
<path d="M231.13 545.11C231.13 608.79 179.51 660.41 115.83 660.41C52.15 660.41 0.530029 608.79 0.530029 545.11L115.83 660.41L0.530029 752.32C0.530029 816 52.15 867.62 115.83 867.62C179.51 867.62 231.13 816 231.13 752.32V545.12" stroke="#F8F5F0" stroke-miterlimit="10"/>
<path d="M0.530014 752C25.8 783.84 72.1 789.17 103.94 763.9C135.78 738.63 141.11 692.33 115.84 660.49L0.52002 752H0.530014Z" fill="#F8F5F0"/>
<path d="M846.66 324.34C846.66 260.66 898.28 209.04 961.96 209.04C1025.64 209.04 1077.26 260.66 1077.26 324.34L961.96 209.04L1077.26 117.13C1077.26 53.4501 1025.64 1.83008 961.96 1.83008C898.28 1.83008 846.66 53.4501 846.66 117.13V324.33V324.34Z" stroke="#F8F5F0" stroke-miterlimit="10"/>
<path d="M1077.26 117.45C1051.99 85.6105 1005.69 80.2805 973.85 105.55C942.01 130.82 936.68 177.12 961.95 208.96L1077.27 117.45H1077.26Z" fill="#F8F5F0"/>
<path d="M115.83 569.701C129.411 569.701 140.42 558.691 140.42 545.11C140.42 531.53 129.411 520.521 115.83 520.521C102.249 520.521 91.24 531.53 91.24 545.11C91.24 558.691 102.249 569.701 115.83 569.701Z" fill="#F8F5F0"/>
<path d="M108.2 111.16C108.2 100.7 116.68 92.21 127.15 92.21C137.62 92.21 146.1 100.69 146.1 111.16" fill="#F8F5F0"/>
<path d="M920.19 726.44C920.19 736.9 911.71 745.39 901.24 745.39C890.77 745.39 882.29 736.91 882.29 726.44" fill="#F8F5F0"/>
<path d="M958.47 348.93C972.051 348.93 983.06 337.921 983.06 324.34C983.06 310.759 972.051 299.75 958.47 299.75C944.889 299.75 933.88 310.759 933.88 324.34C933.88 337.921 944.889 348.93 958.47 348.93Z" fill="#F8F5F0"/>
<path d="M962.24 439.72C962.24 376 910.58 324.34 846.86 324.34" stroke="#F8F5F0" stroke-miterlimit="10"/>
<path d="M231.13 546.01C231.13 482.29 179.55 429.74 115.83 429.74H92.39C74.8 429.74 60.53 415.48 60.53 397.88C60.53 380.28 74.79 366.02 92.39 366.02H124.25C141.84 366.02 156.11 351.76 156.11 334.16C156.11 316.56 141.85 302.3 124.25 302.3H92.39C74.8 302.3 60.53 288.04 60.53 270.44C60.53 252.84 74.79 238.58 92.39 238.58H124.25C141.84 238.58 156.11 224.32 156.11 206.72C156.11 189.12 141.85 174.86 124.25 174.86H92.39C74.8 174.86 60.53 160.6 60.53 143C60.53 125.4 74.79 111.14 92.39 111.14H226.21" stroke="#F8F5F0" stroke-miterlimit="10"/>
<path d="M962.24 439.72C962.24 457.31 947.98 471.58 930.38 471.58H898.52C880.93 471.58 866.66 485.84 866.66 503.44C866.66 521.04 880.92 535.3 898.52 535.3H930.38C947.97 535.3 962.24 549.56 962.24 567.16C962.24 584.76 947.98 599.02 930.38 599.02H898.52C880.93 599.02 866.66 613.28 866.66 630.88C866.66 648.48 880.92 662.74 898.52 662.74H930.38C947.97 662.74 962.24 677 962.24 694.6C962.24 712.2 947.98 726.46 930.38 726.46H801.87" stroke="#F8F5F0" stroke-miterlimit="10"/>
<path d="M156.11 206.73V436.97" stroke="#F8F5F0" stroke-miterlimit="10"/>
<path d="M866.53 325.94V630.86" stroke="#F8F5F0" stroke-miterlimit="10"/>
<path d="M831.05 726.44H801.87V835.45H831.05V726.44Z" fill="#F8F5F0"/>
<path d="M226.21 2.15039H197.03V111.16H226.21V2.15039Z" fill="#F8F5F0"/>
</svg>
