<svg width="813" height="837" viewBox="0 0 813 837" fill="none" xmlns="http://www.w3.org/2000/svg">
<path d="M501.26 316.501H355.61V203.231L428.44 129.431L501.26 203.231V316.501Z" fill="#F8F5F0"/>
<path d="M428.44 316.501V640.761" stroke="#F8F5F0" stroke-miterlimit="10"/>
<path d="M367.69 301.201L428.32 252.311L489.19 301.401" fill="#F8F5F0"/>
<path d="M367.69 301.201L428.32 252.311L489.19 301.401" stroke="black" stroke-miterlimit="10"/>
<path d="M428.44 149.351V252.311" stroke="black" stroke-miterlimit="10"/>
<path d="M355.61 713.591C355.61 673.371 388.22 640.761 428.44 640.761C468.66 640.761 501.27 673.371 501.27 713.591V736.781H355.62V713.591H355.61Z" stroke="#F8F5F0" stroke-miterlimit="10"/>
<path d="M428.44 640.651C432.94 640.651 437.33 641.081 441.6 641.861C441.64 641.461 441.66 641.061 441.66 640.651C441.66 633.351 435.74 627.431 428.44 627.431C421.14 627.431 415.22 633.351 415.22 640.651C415.22 641.061 415.24 641.461 415.28 641.861C419.55 641.081 423.95 640.651 428.44 640.651V640.651Z" fill="#F8F5F0" stroke="#F8F5F0" stroke-miterlimit="10"/>
<path d="M501.26 713.061H355.61V743.421H501.26V713.061Z" fill="#F8F5F0" stroke="#F8F5F0" stroke-miterlimit="10"/>
<path d="M367.69 539.43C395.481 539.43 418.01 516.901 418.01 489.11C418.01 461.319 395.481 438.79 367.69 438.79C339.899 438.79 317.37 461.319 317.37 489.11C317.37 516.901 339.899 539.43 367.69 539.43Z" fill="#F8F5F0" stroke="#F8F5F0" stroke-miterlimit="10"/>
<path d="M532.25 579.7C582.282 579.7 622.84 539.141 622.84 489.11C622.84 439.078 582.282 398.52 532.25 398.52C482.219 398.52 441.66 439.078 441.66 489.11C441.66 539.141 482.219 579.7 532.25 579.7Z" fill="#F8F5F0" stroke="#F8F5F0" stroke-miterlimit="10"/>
<path d="M512.05 330.35H344.83V205.51L408.49 131.68C420.13 122.29 436.75 122.29 448.4 131.68L512.06 205.51V330.35H512.05Z" fill="#F8F5F0"/>
<path d="M415.09 504.59C406.52 551.24 348.7 592.16 293.35 592.16C221.95 592.16 164.06 533.84 164.06 461.89C164.06 445.93 166.91 430.64 172.12 416.51C177.33 402.38 185.92 388.17 196.27 376.29L381.98 162.95" stroke="#F8F5F0" stroke-miterlimit="10"/>
<path d="M445.58 509.87C450.03 549.95 507.33 593.84 562.67 593.84C634.07 593.84 691.96 535.52 691.96 463.57C691.96 433.78 681.48 402.94 664.78 381L473.49 161.25" stroke="#F8F5F0" stroke-miterlimit="10"/>
<path d="M565.06 713.06H291.82V743.42H565.06V713.06Z" fill="#F8F5F0" stroke="#F8F5F0" stroke-miterlimit="10"/>
<path d="M89.3401 111.01V2L19.1401 111.01" stroke="#F8F5F0" stroke-miterlimit="10"/>
<path d="M89.3401 60.46H51.6901" stroke="#F8F5F0" stroke-miterlimit="10"/>
<path d="M89.3401 111.01H65.2201" stroke="#F8F5F0" stroke-miterlimit="10"/>
<path d="M0.320068 111.01H37.9701" stroke="#F8F5F0" stroke-miterlimit="10"/>
<path d="M723.05 726.29V835.3L793.24 726.29" stroke="#F8F5F0" stroke-miterlimit="10"/>
<path d="M723.05 776.83H760.7" stroke="#F8F5F0" stroke-miterlimit="10"/>
<path d="M723.05 726.29H747.16" stroke="#F8F5F0" stroke-miterlimit="10"/>
<path d="M774.42 726.29H812.07" stroke="#F8F5F0" stroke-miterlimit="10"/>
</svg>
