<svg width="242" height="769" viewBox="0 0 242 769" fill="none" xmlns="http://www.w3.org/2000/svg">
<path d="M83 363C83 340.909 64.8675 323 42.5 323C20.1325 323 2 340.909 2 363C2 385.091 20.1325 403 42.5 403C64.8675 403 83 385.091 83 363Z" stroke="black" stroke-miterlimit="10"/>
<path d="M129 363C129 346.984 116.016 334 100 334C83.9837 334 71 346.984 71 363C71 379.016 83.9837 392 100 392C116.016 392 129 379.016 129 363Z" stroke="black" stroke-miterlimit="10"/>
<path d="M178 420.5C178 394.266 156.734 373 130.5 373C104.266 373 83 394.266 83 420.5C83 446.734 104.266 468 130.5 468C156.734 468 178 446.734 178 420.5Z" stroke="black" stroke-miterlimit="10"/>
<path d="M178 306.5C178 280.266 156.734 259 130.5 259C104.266 259 83 280.266 83 306.5C83 332.734 104.266 354 130.5 354C156.734 354 178 332.734 178 306.5Z" stroke="black" stroke-miterlimit="10"/>
<path d="M127.062 550.995C116.011 539.535 101.008 532.519 85.1123 532.036C84.4494 532.012 83.7746 532 83.0997 532C47.0793 532 17 561.26 17 597.355C17 638.147 68.6506 662.71 83.0997 662.71L83.1841 662.71C90.017 662.71 95.8979 657.445 96.2233 650.61C96.5607 643.304 90.7521 637.278 83.5456 637.278L83.1118 637.278C68.6626 637.278 17.012 662.722 17.012 702.633C17.012 738.74 47.0913 768 83.1118 768C83.7384 768 84.3651 768 84.9917 767.976C100.272 767.541 114.734 760.96 125.531 750.128L224 651.455L127.05 550.995L127.062 550.995Z" stroke="black" stroke-miterlimit="10"/>
<path d="M90 650C90 646.134 87.0898 643 83.5 643C79.9101 643 77 646.134 77 650C77 653.866 79.9101 657 83.5 657C87.0898 657 90 653.866 90 650Z" fill="#DF3F31" stroke="black" stroke-miterlimit="10"/>
<path d="M106 363.5C106 359.91 103.09 357 99.5 357C95.9101 357 93 359.91 93 363.5C93 367.09 95.9101 370 99.5 370C103.09 370 106 367.09 106 363.5Z" fill="#DF3F31" stroke="black" stroke-miterlimit="10"/>
<path d="M224 383C212.95 383 204 374.05 204 363C204 351.95 212.95 343 224 343L224 383V383Z" stroke="black" stroke-miterlimit="10"/>
<path d="M128 363L224 363" stroke="black" stroke-miterlimit="10"/>
<path d="M161 91C161 68.9086 143.091 51 121 51C98.9086 51 81 68.9086 81 91C81 113.091 98.9086 131 121 131C143.091 131 161 113.091 161 91Z" stroke="black" stroke-miterlimit="10"/>
<path d="M128 91.5C128 87.9102 125.09 85 121.5 85C117.91 85 115 87.9102 115 91.5C115 95.0898 117.91 98 121.5 98C125.09 98 128 95.0898 128 91.5Z" fill="#DF3F31" stroke="black" stroke-miterlimit="10"/>
<path d="M4 92L85.8104 92C105.246 92 121 107.526 121 126.68L121 180" stroke="black" stroke-miterlimit="10"/>
<path d="M121 1L121 73.7089C130.624 74.5839 138.435 82.375 138.435 92L240 92" stroke="black" stroke-miterlimit="10"/>
<path d="M121 1.01201L241 91.006L121 181L0.999996 90.994L121 1.00001L121 1.01201Z" stroke="black" stroke-miterlimit="10"/>
<path d="M224 421L224 306" stroke="black" stroke-miterlimit="10"/>
</svg>
