<svg width="649" height="624" viewBox="0 0 649 624" fill="none" xmlns="http://www.w3.org/2000/svg">
<g style="mix-blend-mode:multiply" clip-path="url(#clip0_90_1832)">
<path d="M273.547 309.675V373.619" stroke="#DF3F31" stroke-miterlimit="10"/>
<path d="M110.415 434.658L110.158 425.381C110.158 425.381 109.934 434.658 119.721 434.658" fill="#DF3F31"/>
<path d="M226.666 330.436V466.63" stroke="#DF3F31" stroke-miterlimit="10"/>
<path d="M299.241 525.168C299.241 520.883 300.968 517.005 303.766 514.198L281.102 531.812L280.994 532.152C277.357 535.05 275.548 539.718 275.631 544.742C275.755 552.855 282.347 559.665 290.458 560.039C299.382 560.446 306.754 553.329 306.754 544.493V544.41C306.738 541.129 305.393 537.99 303.201 535.54C300.736 532.783 299.241 529.154 299.241 525.168Z" fill="#DF3F31"/>
<path d="M249.886 324.208C244.905 326.699 241.585 326.699 237.176 330.76C224.167 342.743 227.521 356.055 226.641 363.239L226.367 310.522L226.732 310.007" fill="#DF3F31"/>
<path d="M395.959 447.471C395.784 447.014 394.987 445.885 394.846 444.232C394.655 442.015 396.689 440.338 398.532 439.349L383.73 441.035C376.881 441.633 371.809 447.679 372.406 454.53C373.004 461.381 379.048 466.455 385.897 465.857C392.746 465.259 397.818 459.214 397.221 452.363C397.071 450.685 396.689 448.875 395.959 447.471Z" fill="#DF3F31"/>
<path d="M1.46094 434.657C2.99679 442.887 6.28433 450.469 11.7636 456.233C32.95 478.53 105.027 536.388 105.027 536.388C105.027 536.388 175.967 479.568 196.572 457.437C202.118 451.482 204.949 443.311 205.812 434.657H1.46094Z" fill="black"/>
<path d="M210.453 397.702L178.075 357.01V294.727H210.453V397.702Z" fill="#DF3F31"/>
<path d="M383.589 349.545C349.419 328.202 326.68 290.242 326.68 246.976C326.68 180.241 380.758 126.145 447.472 126.145C514.186 126.145 568.265 180.241 568.265 246.976C568.265 305.365 526.863 354.087 471.813 365.348" stroke="black" stroke-miterlimit="10"/>
<path d="M515.132 347.045L303.434 514.796L127.093 293.406C113.271 275.826 105.019 253.644 105.019 229.536C105.019 172.435 151.293 126.145 208.377 126.145C265.461 126.145 311.736 172.435 311.736 229.536C311.736 286.638 265.461 332.927 208.377 332.927C191.889 332.927 174.754 328.775 160.641 320.471" stroke="black" stroke-miterlimit="10"/>
<path d="M194.264 330.436C227.964 330.436 255.283 303.108 255.283 269.398C255.283 235.688 227.964 208.36 194.264 208.36C160.564 208.36 133.245 235.688 133.245 269.398C133.245 303.108 160.564 330.436 194.264 330.436Z" stroke="black" stroke-miterlimit="10"/>
<path d="M254.453 271.474V322.107" stroke="black" stroke-miterlimit="10"/>
<path d="M256.528 271.889V304.277C256.528 309.55 260.388 313.412 265.66 313.412C268.325 313.412 273.132 312.581 273.132 302.616V310.09C255.698 323.51 234.154 332.927 210.453 332.927C193.965 332.927 178.382 329.066 164.551 322.198L163.987 321.725C145.847 311.651 133.66 292.916 133.66 271.474C133.66 237.841 156.075 208.775 194.264 208.775C232.453 208.775 256.528 240.199 256.528 272.305V271.889Z" fill="black"/>
<path d="M273.547 309.783V149.282" stroke="black" stroke-miterlimit="10"/>
<path d="M273.547 309.783V149.282C296.85 168.233 311.736 197.149 311.736 229.528C311.736 261.907 297.091 290.35 274.12 309.309L273.547 309.774V309.783Z" fill="black" stroke="black" stroke-miterlimit="10"/>
<path d="M194.264 286.007C203.434 286.007 210.868 278.571 210.868 269.398C210.868 260.225 203.434 252.789 194.264 252.789C185.094 252.789 177.66 260.225 177.66 269.398C177.66 278.571 185.094 286.007 194.264 286.007Z" fill="white"/>
<path d="M194.264 269.398V207.945" stroke="white" stroke-miterlimit="10"/>
<path d="M87.9997 406.837C90.98 406.837 93.396 404.421 93.396 401.439C93.396 398.458 90.98 396.042 87.9997 396.042C85.0195 396.042 82.6035 398.458 82.6035 401.439C82.6035 404.421 85.0195 406.837 87.9997 406.837Z" fill="black" stroke="black" stroke-miterlimit="10"/>
<path d="M273.962 148.983V17.9377C273.962 0.24908 297.207 -6.26165 306.389 8.85254L387.382 142.131" stroke="black" stroke-miterlimit="10"/>
<path d="M273.547 382.754C278.591 382.754 282.679 378.664 282.679 373.619C282.679 368.574 278.591 364.484 273.547 364.484C268.504 364.484 264.415 368.574 264.415 373.619C264.415 378.664 268.504 382.754 273.547 382.754Z" fill="#DF3F31"/>
<path d="M227.056 502.339C238.06 502.339 246.981 493.416 246.981 482.408C246.981 471.401 238.06 462.478 227.056 462.478C216.052 462.478 207.132 471.401 207.132 482.408C207.132 493.416 216.052 502.339 227.056 502.339Z" fill="#DF3F31"/>
<path d="M295.132 84.6227C283.326 84.6227 273.547 94.4054 273.547 106.214C273.547 94.4054 263.767 84.6227 251.962 84.6227C240.157 84.6227 230.792 74.84 230.792 63.0311C230.792 51.2221 240.364 41.647 252.169 41.647C263.975 41.647 273.547 51.2221 273.547 63.0311C273.547 51.2221 283.119 41.647 294.924 41.647C306.729 41.647 316.301 51.2221 316.301 63.0311C316.301 74.84 306.937 84.6227 295.132 84.6227Z" fill="#DF3F31"/>
<path d="M429.208 185.522C439.753 185.522 448.302 176.971 448.302 166.422C448.302 155.873 439.753 147.322 429.208 147.322C418.662 147.322 410.113 155.873 410.113 166.422C410.113 176.971 418.662 185.522 429.208 185.522Z" fill="#DF3F31"/>
<path d="M460.822 176.413C457.733 173.822 455.774 169.935 455.774 165.592C455.774 157.794 462.092 151.474 469.887 151.474C477.683 151.474 484 157.794 484 165.592C484 170.093 481.892 174.112 478.604 176.695L479.019 176.388L449.963 205.453L418.208 181.196" stroke="#DF3F31" stroke-miterlimit="10"/>
<path d="M464.075 178.048C467.284 178.048 469.886 175.446 469.886 172.235C469.886 169.025 467.284 166.422 464.075 166.422C460.865 166.422 458.264 169.025 458.264 172.235C458.264 175.446 460.865 178.048 464.075 178.048Z" fill="#DF3F31"/>
<path d="M389.093 367.452L264.76 466.453L303.537 515.183L427.871 416.182L389.093 367.452Z" fill="black"/>
<path d="M568.265 246.976C568.265 219.513 559.099 194.192 543.666 173.896C521.6 202.912 486.723 221.647 447.472 221.647C408.221 221.647 373.345 202.912 351.278 173.896C335.845 194.192 326.68 219.513 326.68 246.976C326.68 272.404 334.542 295.989 347.949 315.455L347.883 315.505L348.638 316.451C351.378 320.346 354.342 324.066 357.513 327.596L389.16 367.358L399.595 359.053L399.653 359.128C405.157 354.444 412.289 351.604 420.084 351.604C437.51 351.604 451.631 365.73 451.631 383.161C451.631 391.648 448.269 399.347 442.815 405.019L519.142 344.246C521.525 342.486 523.841 340.642 526.083 338.724L527.237 337.81L527.195 337.761C552.383 315.613 568.281 283.159 568.281 246.976H568.265Z" fill="black"/>
<path opacity="0.65" d="M433.293 411.82L427.93 416.097L428.303 416.57L436.273 410.226C435.31 410.807 434.322 411.347 433.293 411.82Z" fill="black"/>
<path d="M434.529 220.958L484.15 302.616" stroke="white" stroke-miterlimit="10"/>
<path d="M523.26 341.365C534.542 346.605 547.119 349.536 560.378 349.536C609.093 349.536 648.585 310.032 648.585 261.301C648.585 212.57 609.093 173.066 560.378 173.066C554.84 173.066 549.427 173.572 544.172 174.552" stroke="black" stroke-miterlimit="10"/>
<path d="M484.282 302.55C492.891 319.707 507.129 333.55 524.571 341.655" stroke="white" stroke-miterlimit="10"/>
<path d="M111.619 416.878C117.115 396.332 135.943 381.085 158.151 381.085C184.626 381.085 206.094 402.561 206.094 429.044C206.094 439.806 203.388 450.444 196.564 457.752C175.958 479.792 105.019 536.379 105.019 536.379C105.019 536.379 32.9418 478.754 11.7554 456.548C3.7607 448.169 0.415039 435.92 0.415039 423.438C0.415039 393.625 24.5735 369.459 54.3773 369.459C73.0067 369.459 89.5109 379.183 99.2075 393.542C100.727 395.792 101.698 398.923 101.698 401.846C101.698 409.644 95.3803 415.964 87.5849 415.964C79.7894 415.964 73.4716 409.644 73.4716 401.846V116.18C73.4716 82.6962 100.602 55.5571 134.075 55.5571C167.549 55.5571 194.679 82.6962 194.679 116.18V207.945" stroke="black" stroke-miterlimit="10"/>
<path d="M110.515 434.657C113.312 451.067 127.434 464.969 144.038 464.969C161.762 464.969 176.656 452.205 177.967 434.657H119.713" fill="#DF3F31"/>
<path d="M326.68 496.759L177.246 611.95C168.205 619.416 156.674 623.577 144.038 623.577C115.156 623.577 91.7363 600.15 91.7363 571.258C91.7363 557.863 96.7673 545.647 105.036 536.396" stroke="black" stroke-miterlimit="10"/>
<path d="M507.287 518.533L427.639 416.387" stroke="black" stroke-miterlimit="10"/>
<path d="M457.492 454.68C457.176 453.035 457.019 451.341 457.019 449.606C457.019 434.699 469.098 422.616 484 422.616C498.902 422.616 510.981 434.699 510.981 449.606C510.981 464.512 498.902 476.595 484 476.595C479.932 476.595 476.08 475.698 472.618 474.087L457.492 454.688V454.68Z" fill="black" stroke="black" stroke-miterlimit="10"/>
<path d="M540.037 424.277C534.234 424.277 528.896 426.27 524.662 429.6L555.678 468.573C561.332 464.006 564.943 457.022 564.943 449.19C564.943 435.43 553.793 424.277 540.037 424.277Z" fill="black" stroke="black" stroke-miterlimit="10"/>
<path d="M540.037 474.104C553.793 474.104 564.943 462.95 564.943 449.19C564.943 435.431 553.793 424.277 540.037 424.277C526.282 424.277 515.132 435.431 515.132 449.19C515.132 462.95 526.282 474.104 540.037 474.104Z" stroke="black" stroke-miterlimit="10"/>
<path d="M582.734 480.664C595.544 489.318 603.962 503.975 603.962 520.601C603.962 547.2 582.402 568.767 555.811 568.767C529.22 568.767 507.66 547.2 507.66 520.601C507.66 497.431 524.015 478.082 545.807 473.473" stroke="black" stroke-miterlimit="10"/>
<path d="M497.067 505.287C498.362 507.496 500.77 508.974 503.509 508.974C506.93 508.974 509.81 506.674 510.699 503.535L510.757 503.551C508.939 508.36 507.868 513.534 507.685 518.94L507.278 518.525L496.992 505.337L497.059 505.287H497.067Z" fill="black" stroke="black" stroke-linejoin="bevel"/>
<path d="M354.491 101.232C361.139 101.232 366.529 95.8406 366.529 89.1902C366.529 82.5399 361.139 77.1487 354.491 77.1487C347.843 77.1487 342.453 82.5399 342.453 89.1902C342.453 95.8406 347.843 101.232 354.491 101.232Z" fill="black" stroke="black" stroke-linejoin="bevel"/>
<path d="M376.906 138.602C383.554 138.602 388.944 133.211 388.944 126.561C388.944 119.91 383.554 114.519 376.906 114.519C370.258 114.519 364.868 119.91 364.868 126.561C364.868 133.211 370.258 138.602 376.906 138.602Z" fill="black" stroke="black" stroke-linejoin="bevel"/>
<path d="M582.743 480.681C580.509 482.259 579.057 484.858 579.057 487.806C579.057 492.623 582.959 496.526 587.774 496.526C590.796 496.526 593.46 494.99 595.021 492.648L582.743 480.681Z" fill="black" stroke="black" stroke-miterlimit="10"/>
<path d="M178.075 357.01V432.581C178.075 451.158 162.609 464.969 144.038 464.969C127.284 464.969 113.055 451.025 110.432 434.657" stroke="black" stroke-miterlimit="10"/>
<path d="M110.515 434.658C113.312 450.843 127.434 464.554 144.038 464.554C161.762 464.554 176.656 451.964 177.968 434.658H119.713C119.713 434.658 110.149 435.621 110.149 425.381" fill="#DF3F31"/>
<path d="M110.515 434.658C113.312 450.843 127.434 464.554 144.038 464.554C161.762 464.554 176.656 451.964 177.968 434.658H119.713C119.713 434.658 110.149 435.621 110.149 425.381" stroke="white" stroke-miterlimit="10"/>
<path d="M110.432 434.649C110.149 432.872 110 431.07 110 429.251C110 424.974 110.565 420.83 111.619 416.877" stroke="black" stroke-miterlimit="10"/>
<path d="M218.34 464.554C218.34 464.554 225.986 460.925 226.642 447.114C226.642 447.114 226.642 462.062 235.774 464.554H218.34Z" fill="#DF3F31"/>
</g>
<defs>
<clipPath id="clip0_90_1832">
<rect width="649" height="624" fill="white"/>
</clipPath>
</defs>
</svg>
