<svg width="1459" height="1001" viewBox="0 0 1459 1001" fill="none" xmlns="http://www.w3.org/2000/svg">
<path d="M600.729 584.856C600.729 618.635 629.346 646.013 664.647 646.013C699.949 646.013 728.566 618.635 728.566 584.856H600.729Z" fill="black"/>
<path d="M864.72 544.707C874.604 555.454 880.597 569.496 880.597 584.856C880.597 618.635 851.666 646.014 815.988 646.014C780.31 646.014 751.379 618.635 751.379 584.856" stroke="black" stroke-miterlimit="10"/>
<path d="M864.704 544.722L742.389 396.206L618.003 542.714C606.596 553.76 600.729 568.115 600.729 584.872C600.729 618.651 629.346 646.029 664.647 646.029C699.949 646.029 728.566 618.651 728.566 584.872C728.566 551.092 699.541 521.988 670.17 520.953C666.797 520.827 660.709 520.749 656.693 524.75C652.676 528.751 652.174 535.434 656.834 540.094C661.494 544.754 669.04 544.754 673.7 540.094C674.265 539.529 674.798 538.949 675.316 538.337L716.815 485.416" stroke="black" stroke-miterlimit="10"/>
<path d="M742.389 396.206V725.637" stroke="black" stroke-miterlimit="10"/>
<path d="M670.516 725.481H742.389V653.607C742.389 693.302 710.21 725.481 670.516 725.481Z" fill="black"/>
<path d="M814.952 725.481H743.079V653.607C743.079 693.302 775.258 725.481 814.952 725.481Z" fill="black"/>
<path d="M705.77 490.876C713.404 490.876 719.592 484.688 719.592 477.054C719.592 469.42 713.404 463.231 705.77 463.231C698.136 463.231 691.947 469.42 691.947 477.054C691.947 484.688 698.136 490.876 705.77 490.876Z" fill="black"/>
<path d="M742.263 396.881L789.378 340.916C796.219 332.883 807.029 327.094 818.404 327.094C839.02 327.094 855.713 343.803 855.713 364.403C855.713 373.111 852.732 381.113 847.743 387.451L847.413 387.891L840.51 396.19" stroke="black" stroke-miterlimit="10"/>
<path d="M866.085 600.765C858.067 600.765 851.572 594.285 851.572 586.284C851.572 586.268 851.572 586.252 851.572 586.221H851.478C851.54 585.311 851.572 584.385 851.572 583.46C851.572 557.274 829.136 536.03 801.475 536.03C773.815 536.03 751.379 557.258 751.379 583.46C751.379 584.385 751.41 585.311 751.473 586.221H751.379C751.379 620 780.31 647.378 815.988 647.378C851.666 647.378 880.534 620.063 880.597 586.346C880.566 594.317 874.086 600.765 866.085 600.765Z" fill="black"/>
<path d="M697.172 449.754C701.957 444.922 708.609 441.925 715.952 441.925C728.802 441.925 739.502 451.088 741.903 463.231H742.405V396.19L697.172 449.738V449.754Z" fill="black"/>
<path d="M818.404 407.267C833.671 407.267 846.048 394.89 846.048 379.622C846.048 364.354 833.671 351.977 818.404 351.977C803.136 351.977 790.759 364.354 790.759 379.622C790.759 394.89 803.136 407.267 818.404 407.267Z" fill="black" stroke="black" stroke-miterlimit="10"/>
<path d="M478.851 297.257L478.851 214.016L562.092 214.016C516.119 214.016 478.851 251.285 478.851 297.257Z" fill="black"/>
<path d="M478.851 214.034L1126.92 214.034C1162.28 214.034 1190.95 242.708 1190.95 278.068L1190.95 432.54" stroke="black" stroke-miterlimit="10"/>
<path d="M997.068 706.503L997.068 706.467L1017.11 725.982L997.068 745.243L997.068 745.207C995.124 746.933 992.561 747.969 989.745 747.969C983.639 747.969 978.679 743.008 978.679 736.903C978.679 730.798 983.331 726.146 989.2 725.855C983.349 725.564 978.679 720.731 978.679 714.807C978.679 708.883 983.639 703.741 989.745 703.741C992.543 703.741 995.105 704.795 997.068 706.503Z" fill="black"/>
<path d="M957.055 743.463L957.055 725.855L974.663 725.855C964.942 725.855 957.055 733.741 957.055 743.463Z" fill="black"/>
<path d="M957.055 708.247L957.055 725.855L974.663 725.855C964.942 725.855 957.055 717.969 957.055 708.247Z" fill="black"/>
<path d="M990.672 725.855L959.145 725.855" stroke="black" stroke-miterlimit="10"/>
<path d="M359.322 357.237L359.322 357.309L324.652 323.548L359.322 290.204L359.322 290.277C362.702 287.297 367.117 285.48 371.987 285.48C382.562 285.48 391.139 294.056 391.139 304.632C391.139 315.207 383.071 323.257 372.95 323.748C383.089 324.238 391.139 332.615 391.139 342.863C391.139 353.112 382.562 362.016 371.987 362.016C367.135 362.016 362.702 360.199 359.322 357.218L359.322 357.237Z" fill="black"/>
<path d="M411.218 297.745L411.218 323.766L385.197 323.766C399.571 323.766 411.218 312.118 411.218 297.745Z" fill="black"/>
<path d="M411.218 349.787L411.218 323.766L385.197 323.766C399.571 323.766 411.218 335.413 411.218 349.787Z" fill="black"/>
<path d="M365.082 323.766L408.093 323.766" stroke="black" stroke-miterlimit="10"/>
<path d="M823.372 214.034C823.372 125.196 895.401 53.1666 984.239 53.1666L1066.43 53.1666C1078.22 53.1666 1087.76 43.6087 1087.76 31.8339C1087.76 20.0409 1078.2 10.5012 1066.43 10.5012L1064.37 10.5012C1052.58 10.5012 1043.04 20.0591 1043.04 31.8339L1043.04 756.091C1043.04 779.841 1023.8 799.084 1000.05 799.084C976.298 799.084 957.055 779.841 957.055 756.091L957.055 610.197" stroke="black" stroke-miterlimit="10"/>
<path d="M1043.02 614.194L1193.15 614.194C1339.9 614.194 1458.86 495.229 1458.86 348.481L1308.41 348.154L1308.41 214.034C1308.41 360.782 1189.44 479.748 1042.7 479.748L1043.04 614.213L1043.02 614.194Z" fill="black"/>
<path d="M1089.92 132.392C1089.92 119.577 1100.31 109.188 1113.13 109.188C1125.94 109.188 1136.33 119.577 1136.33 132.392C1136.33 145.207 1125.94 155.596 1113.13 155.596C1100.31 155.596 1089.92 145.207 1089.92 132.392Z" fill="black"/>
<path d="M311.987 806.28C311.987 793.464 322.376 783.075 335.191 783.075C348.007 783.075 358.396 793.464 358.396 806.28C358.396 819.095 348.007 829.484 335.191 829.484C322.376 829.484 311.987 819.095 311.987 806.28Z" fill="black"/>
<path d="M1043.49 214.834L1043.49 53.1668L924.802 53.1668C868.399 53.1668 822.608 98.9576 822.608 155.36L822.608 214.834L1043.49 214.834Z" fill="black"/>
<path d="M403.223 725.437L403.223 887.104L521.916 887.104C578.318 887.104 624.109 841.313 624.109 784.911L624.109 725.437L403.223 725.437Z" fill="black"/>
<path d="M957.056 725.855L297.578 725.855C262.217 725.855 233.543 697.181 233.543 661.821L233.543 493.758" stroke="black" stroke-miterlimit="10"/>
<path d="M403.768 932.477L366.736 932.477C348.093 932.477 332.975 947.595 332.975 966.238C332.975 984.882 348.093 1000 366.736 1000L369.989 1000C388.632 1000 403.75 984.882 403.75 966.238L403.859 931.023" stroke="black" stroke-miterlimit="10"/>
<path d="M623.564 725.455L623.564 771.61C623.564 860.447 551.534 932.477 462.697 932.477L403.914 932.477L403.205 725.455" stroke="black" stroke-miterlimit="10"/>
<path d="M233.543 342.74L233.543 89.6191C233.543 40.4849 273.374 0.654223 322.508 0.654222C371.642 0.654221 411.473 40.4849 411.473 89.6191L411.473 349.751" stroke="black" stroke-miterlimit="10"/>
<path d="M171.126 551.777L171.126 887.122L403.914 887.122L403.914 493.758" stroke="black" stroke-miterlimit="10"/>
<path d="M403.223 493.34C275.045 493.34 171.126 597.259 171.126 725.437L171.126 551.759L0.645872 551.759C0.64587 423.581 104.565 319.662 232.743 319.662" fill="black"/>
<path d="M957.056 634.201L1005.79 682.826L1027.49 682.226L957.128 610.397L957.056 634.201Z" fill="black" stroke="black" stroke-miterlimit="10"/>
<path d="M1005.79 682.826L1193.95 682.826" stroke="black" stroke-miterlimit="10"/>
<path d="M957.056 657.223L992.798 657.223" stroke="black" stroke-miterlimit="10"/>
<path d="M155.117 255.646C155.117 246.363 162.642 238.838 171.925 238.838C181.208 238.838 188.733 246.363 188.733 255.646C188.733 264.928 181.208 272.454 171.925 272.454C162.642 272.454 155.117 264.928 155.117 255.646Z" fill="black"/>
<path d="M1179.56 683.026C1179.56 679.052 1182.78 675.83 1186.75 675.83C1190.73 675.83 1193.95 679.052 1193.95 683.026C1193.95 687 1190.73 690.222 1186.75 690.222C1182.78 690.222 1179.56 687 1179.56 683.026Z" fill="black"/>
<path d="M410.938 172.709L329.559 254.865L289.795 254.865L410.81 131.969L410.938 172.709Z" fill="black" stroke="black" stroke-miterlimit="10"/>
<path d="M329.559 254.962H172.349" stroke="black" stroke-miterlimit="10"/>
<path d="M411.218 214.273L350.218 214.273" stroke="black" stroke-miterlimit="10"/>
<path d="M404.022 494.157L232.852 319.807L404.022 494.157Z" stroke="black" stroke-miterlimit="10"/>
</svg>
