<svg width="1738" height="10917" viewBox="0 0 1738 10917" fill="none" xmlns="http://www.w3.org/2000/svg">
<path d="M774 10917V10415.7C774 10383 800.527 10356.5 833.25 10356.5H848.25C872.689 10356.5 892.5 10376.3 892.5 10400.8V10400.8C892.5 10425.2 872.564 10445 848.125 10445V10445C823.549 10445 803.5 10425.1 803.5 10400.5V10152C803.5 10115 773.503 10085 736.5 10085H423C385.997 10085 356 10115 356 10152V10270C356 10307 385.997 10337 423 10337H707C744.003 10337 774 10307 774 10270V9873.5V9704.5C774 9683.24 756.763 9666 735.5 9666H733.25C713.23 9666 697 9682.23 697 9702.25V9702.25C697 9722.27 713.23 9738.5 733.25 9738.5H750.25C779.659 9738.5 803.5 9714.66 803.5 9685.25V9429.5C803.5 9392.5 773.503 9362.5 736.5 9362.5H423C385.997 9362.5 356 9392.5 356 9429.5V9553C356 9590 385.997 9620 423 9620H707C744.003 9620 774 9590 774 9553V9414.5V8929.75C774 8911.11 789.11 8896 807.75 8896V8896C826.39 8896 841.5 8911.11 841.5 8929.75V8932.25C841.5 8952.27 825.27 8968.5 805.25 8968.5H787.75C758.065 8968.5 734 8944.44 734 8914.75V8661C734 8624 704.003 8594 667 8594H421C383.997 8594 354 8624 354 8661V8786C354 8823 383.997 8853 421 8853H707C744.003 8853 774 8823 774 8786V8455.5V8236.5C774 8206.12 749.376 8181.5 719 8181.5H698C679.222 8181.5 664 8196.72 664 8215.5V8215.5C664 8234.28 679.222 8249.5 698 8249.5H699C718.33 8249.5 734 8233.83 734 8214.5V7941C734 7904 704.003 7874 667 7874H395C357.997 7874 328 7904 328 7941V8074C328 8111 357.997 8141 395 8141H707C744.003 8141 774 8111 774 8074V7740C774 7703 744.003 7673 707 7673H673C635.997 7673 606 7643 606 7606V7267C606 7230 635.997 7200 673 7200H1027.5C1064.5 7200 1094.5 7170 1094.5 7133V7012C1094.5 6975 1064.5 6945 1027.5 6945H841C803.997 6945 774 6915 774 6878V6650.5C774 6613.5 803.997 6583.5 841 6583.5H1027.5C1064.5 6583.5 1094.5 6553.5 1094.5 6516.5V6348C1094.5 6311 1124.5 6281 1161.5 6281H1224C1261 6281 1291 6251 1291 6214V5956C1291 5919 1261 5889 1224 5889H911.5C874.497 5889 844.5 5859 844.5 5822V5120.56C844.5 5099.44 834.541 5079.55 817.627 5066.9L284.373 4668.1C267.459 4655.45 257.5 4635.56 257.5 4614.44V4323.65C257.5 4295.61 274.954 4270.54 301.246 4260.81L1510.75 3813.19C1537.05 3803.46 1554.5 3778.39 1554.5 3750.35V3499.27C1554.5 3472.42 1538.48 3448.17 1513.78 3437.64L41.7176 2809.86C17.0239 2799.33 1 2775.08 1 2748.23V2178C1 2141 30.9969 2111 68 2111H718C755.003 2111 785 2081 785 2044V1682.5C785 1645.5 814.997 1615.5 852 1615.5H1293C1330 1615.5 1360 1585.5 1360 1548.5V1305C1360 1268 1390 1238 1427 1238H1516C1553 1238 1583 1208 1583 1171V780C1583 742.997 1553 713 1516 713H1486.76C1453.32 713 1426.06 739.817 1425.52 773.25L1425.42 779.05C1424.92 810.076 1449.93 835.5 1480.96 835.5V835.5C1511.63 835.5 1536.5 810.633 1536.5 779.957V397.5C1536.5 360.497 1566.5 330.5 1603.5 330.5H1670.5C1707.5 330.5 1737.5 300.503 1737.5 263.5V68C1737.5 30.9969 1707.5 1 1670.5 1H1502" stroke="black"/>
</svg>
