<svg width="1000" height="2940" viewBox="0 0 1000 2940" fill="none" xmlns="http://www.w3.org/2000/svg">
<path d="M405 0V302.48C405 339.098 375.601 368.933 338.987 369.473L199.513 371.527C162.899 372.067 133.5 401.902 133.5 438.52V694C133.5 731.003 163.497 761 200.5 761H612C649.003 761 679 731.003 679 694V546C679 508.997 649.003 479 612 479H68C30.9969 479 1 508.997 1 546V1157C1 1194 30.9969 1224 68 1224H230C250.158 1224 266.5 1240.34 266.5 1260.5V1260.5C266.5 1280.66 282.842 1297 303 1297H383.75C407.084 1297 426 1315.92 426 1339.25V1339.25C426 1362.58 444.916 1381.5 468.25 1381.5H580.25C603.308 1381.5 622 1400.19 622 1423.25V1423.25C622 1446.31 640.692 1465 663.75 1465H810.75H932.5C969.503 1465 999.5 1495 999.5 1532V2323.5C999.5 2360.5 969.503 2390.5 932.5 2390.5H694.25C672.297 2390.5 654.5 2408.3 654.5 2430.25V2430.25C654.5 2452.2 672.297 2470 694.25 2470H733.5C747.031 2470 758 2480.97 758 2494.5V2494.5C758 2508.03 747.031 2519 733.5 2519H578.25C545.803 2519 519.5 2545.3 519.5 2577.75V2577.75C519.5 2610.2 545.803 2636.5 578.25 2636.5H784C821.003 2636.5 851 2666.5 851 2703.5V2872C851 2909 821.003 2939 784 2939H699" stroke="black"/>
</svg>
