<?xml version="1.0" encoding="UTF-8"?>
<svg id="_레이어_2" data-name="레이어 2" xmlns="http://www.w3.org/2000/svg" viewBox="0 0 1738 10916.5">
  <defs>
    <style>
      .cls-1 {
        fill: none;
        stroke: #000;
      }
    </style>
  </defs>
  <g id="_레이어_2-2" data-name="레이어 2">
    <path class="cls-1" d="M1501.5,.5h190.09c25.36,0,45.91,20.56,45.91,45.91v213.11c0,39.91-32.35,72.26-72.26,72.26h-21.43c-60.26,0-109.06,48.95-108.86,109.21,.35,106-.2,263.06-.53,343.41-.12,28.45-23.21,51.43-51.66,51.43h-2.91c-32.59,0-58.59-25.95-58.64-57.99,0-.63,0-1.26,0-1.89-.06-36.51,29.51-66.13,66.02-66.13h47.41c29.34,0,53.13,23.79,53.13,53.13v405.55c0,38.2-30.97,69.17-69.17,69.17h-70.48c-48.14,0-87.17,39.03-87.17,87.17v178.84c0,63.42-51.41,114.83-114.83,114.83h-326.31c-76.5,0-138.52,62.02-138.52,138.52v247.6c0,58.17-47.15,105.32-105.32,105.32H74.06c-40.62,0-73.56,32.93-73.56,73.56v216.53c0,240.04,143.6,456.79,364.64,550.38l1026.07,434.46c97.09,41.11,160.16,136.32,160.14,241.75v.03c-.01,101.62-63.26,192.51-158.54,227.83l-954.22,353.77c-108.17,40.1-180.43,142.72-181.73,258.08l-.05,4.63c-1.25,110.86,50.15,214.74,138.3,280.42,70.1,52.23,156.49,116.59,234.9,174.99,136.52,101.69,216.72,262.11,216.12,432.34l-1.41,401.7c-.25,70.13,56.53,127.1,126.66,127.1h235.2c47.35,0,85.74,38.39,85.74,85.74v236.05c0,37.25-30.2,67.45-67.45,67.45H647.1c-32.95,0-59.66-26.71-59.66-59.66v-224.22c0-34.3,27.8-62.1,62.1-62.1h604.22c38.71,0,70.08,31.38,70.08,70.08v238.57c0,61.04-49.48,110.52-110.52,110.52h-65.76c-30.63,0-55.46,24.83-55.46,55.46v107.28c0,41.37-33.53,74.9-74.9,74.9h-179.96c-34.78,0-62.97,28.19-62.97,62.97v170.68c0,34.81,28.22,63.02,63.02,63.02h185.24c37.65,0,68.17,30.52,68.17,68.17v177.39c0,37.68-30.55,68.23-68.23,68.23h-345.73c-38.93,0-70.49,31.56-70.49,70.49v331.4c0,40.19,32.58,72.76,72.76,72.76h57.95c21.38,0,38.71,17.33,38.71,38.71v167.25c0,146.07-118.42,264.49-264.49,264.49h-99.84c-47.78,0-86.52-38.74-86.52-86.52v-143.99c0-21.16,17.16-38.32,38.32-38.32h279.51c50.25,0,90.98,40.76,90.94,91.01l-.19,254.9c-.01,18.52-15.03,33.53-33.55,33.53h0c-19.31,0-34.71-15.37-34.75-34.35,0-.89,0-1.78,0-2.67-.04-19.75,15.96-35.78,35.71-35.78h1.39c40.64,0,73.45,32.79,73.45,73.25,0,92.36,0,255.02,.01,387.11,0,115.38-93.53,208.9-208.91,208.9h-168.68c-23.45,0-42.45-19.01-42.45-42.45v-137.95c0-42.65,34.57-77.22,77.22-77.22h261.87c22.28,0,40.34,18.06,40.34,40.34v286.36c0,29.9,24.24,54.14,54.13,54.14h5.85c26.41,0,47.82-21.41,47.82-47.82v-1.85c0-17.61-13.94-31.55-31.13-31.55h-1.06c-21.65,0-39.21,17.56-39.21,39.21v533.77c0,84.88-68.81,153.69-153.69,153.69h-225.47c-20.26,0-36.68-16.42-36.68-36.68v-78.64c0-77.82,63.09-140.91,140.91-140.91h275.44c20.6,0,37.3,16.7,37.3,37.3v253.88c0,41.79-33.88,75.66-75.66,75.66h-.94c-16.46,0-29.8-13.34-29.8-29.8v-.94c0-17.82,14.44-32.26,32.26-32.26h6.4c16.54,0,29.95,13.41,29.95,29.95v612.5c0,18.68-15.14,33.82-33.82,33.82h-248.08c-74.75,0-135.34-60.59-135.34-135.34v-83.47c0-19.89,16.12-36.01,36.01-36.01h225.16c103.21,0,186.87,83.66,186.87,186.87v118.49c0,27.77,22.51,50.27,50.27,50.27h0c25.59,0,46.34-20.75,46.34-46.34h0c0-22.35-18.12-40.47-40.47-40.47h0c-49.56,0-89.74,40.18-89.74,89.74v469.99"/>
  </g>
</svg>