<svg width="277" height="232" viewBox="0 0 277 232" fill="none" xmlns="http://www.w3.org/2000/svg">
<path d="M56.2889 112.598C87.3764 112.598 112.578 87.3917 112.578 56.2988C112.578 25.2058 87.3764 0 56.2889 0C25.2014 0 0 25.2058 0 56.2988C0 87.3917 25.2014 112.598 56.2889 112.598Z" fill="#DF3F31"/>
<path d="M124.658 192.54L232.429 146.846" stroke="black" stroke-miterlimit="10"/>
<path d="M115.701 168.131L78.4422 183.981L64.3164 218.298L98.747 231.954L136.006 216.103L115.701 168.131ZM105.162 201.469L71.1183 215.783L70.7985 215.006L104.774 200.726L112.048 174.309L112.856 174.528L105.633 200.76L129.288 213.69L128.884 214.432L105.162 201.469Z" fill="black"/>
<path d="M266.337 160.23C253.339 165.767 238.338 159.656 232.815 146.608C227.293 133.543 233.354 118.469 246.335 112.932L253.827 109.742L273.829 157.04L266.337 160.23Z" stroke="black" stroke-miterlimit="10"/>
<path d="M232.226 146.827C231.654 145.46 231.216 144.076 230.913 142.691C230.795 142.725 230.677 142.776 230.559 142.826C228.455 143.738 227.495 146.27 228.421 148.481C229.347 150.692 231.805 151.756 233.91 150.844C234.028 150.794 234.146 150.743 234.247 150.676C233.472 149.477 232.799 148.194 232.226 146.827Z" fill="black"/>
<path d="M232.226 146.827C231.654 145.46 231.216 144.076 230.913 142.691C230.795 142.725 230.677 142.776 230.559 142.826C228.455 143.738 227.495 146.27 228.421 148.481C229.347 150.692 231.805 151.756 233.91 150.844C234.028 150.794 234.146 150.743 234.247 150.676C233.472 149.477 232.799 148.194 232.226 146.827V146.827Z" stroke="black" stroke-miterlimit="10"/>
<path d="M246.572 112.899L266.473 160.129L276.019 156.044L256.119 108.814L246.572 112.899Z" fill="black"/>
<path d="M256.119 108.814L276.019 156.044L266.473 160.129L246.572 112.899L256.119 108.814Z" stroke="black" stroke-miterlimit="10"/>
<path d="M87.1885 57.8881C87.1885 55.1704 89.3099 52.9085 91.8859 52.9085C94.4618 52.9085 96.4822 50.6635 96.4822 47.9289C96.4822 45.1944 94.3945 43 91.8354 43C89.2762 43 87.1885 45.2113 87.1885 47.9289V57.8712V57.8881Z" fill="black"/>
<path d="M87.4237 68.8089C87.4237 66.6652 85.6559 64.8759 83.5008 64.8759C81.3458 64.8759 79.6621 63.1035 79.6621 60.9429C79.6621 58.7823 81.3963 57.0605 83.5345 57.0605C85.6727 57.0605 87.4069 58.7992 87.4069 60.9429V68.7921L87.4237 68.8089Z" fill="black"/>
<path d="M56.3023 80.8267C56.3023 77.5351 53.5917 74.8174 50.3085 74.8174C47.0254 74.8174 44.4326 72.0998 44.4326 68.8082C44.4326 65.5166 47.0928 62.8496 50.3759 62.8496C53.659 62.8496 56.3192 65.5166 56.3192 68.8082V80.8436L56.3023 80.8267Z" fill="black"/>
<path d="M87.1887 82.0083C87.1887 78.7168 89.8994 75.9991 93.1825 75.9991C96.4656 75.9991 99.0584 73.2814 99.0584 69.9899C99.0584 66.6983 96.3983 64.0312 93.1152 64.0312C89.8321 64.0312 87.1719 66.6983 87.1719 69.9899V82.0252L87.1887 82.0083Z" fill="black"/>
<path d="M56.2354 93.8421C56.2354 91.6984 58.0032 89.9091 60.1582 89.9091C62.3133 89.9091 63.997 88.1367 63.997 85.9761C63.997 83.8155 62.2628 82.0938 60.1246 82.0938C57.9863 82.0938 56.2522 83.8324 56.2522 85.9761V93.8253L56.2354 93.8421Z" fill="black"/>
<path d="M87.1542 93.8421C87.1542 91.6984 85.3864 89.9091 83.2313 89.9091C81.0762 89.9091 79.3926 88.1367 79.3926 85.9761C79.3926 83.8155 81.1267 82.0938 83.265 82.0938C85.4032 82.0938 87.1374 83.8324 87.1374 85.9761V93.8253L87.1542 93.8421Z" fill="black"/>
<path d="M56.2017 106.147C56.2017 102.855 53.4911 100.138 50.208 100.138C46.9248 100.138 44.332 97.4201 44.332 94.1285C44.332 90.8369 46.9922 88.1699 50.2753 88.1699C53.5584 88.1699 56.2186 90.8369 56.2186 94.1285V106.164L56.2017 106.147Z" fill="black"/>
<path d="M87.1887 106.147C87.1887 102.855 89.8994 100.138 93.1825 100.138C96.4656 100.138 99.0584 97.4201 99.0584 94.1285C99.0584 90.8369 96.3983 88.1699 93.1152 88.1699C89.8321 88.1699 87.1719 90.8369 87.1719 94.1285V106.164L87.1887 106.147Z" fill="black"/>
<path d="M56.2354 118.875C56.2354 116.732 58.0032 114.942 60.1582 114.942C62.3133 114.942 63.997 113.17 63.997 111.009C63.997 108.849 62.2628 107.127 60.1246 107.127C57.9863 107.127 56.2522 108.866 56.2522 111.009V118.858L56.2354 118.875Z" fill="black"/>
<path d="M87.1542 118.875C87.1542 116.732 85.3864 114.942 83.2313 114.942C81.0762 114.942 79.3926 113.17 79.3926 111.009C79.3926 108.849 81.1267 107.127 83.265 107.127C85.4032 107.127 87.1374 108.866 87.1374 111.009V118.858L87.1542 118.875Z" fill="black"/>
<path d="M56.1338 68.793V136.431" stroke="black"/>
<path d="M87 61L87 138" stroke="black"/>
<path d="M23 136.43C24.6668 134.776 27.9836 134.776 29.6504 136.43C31.3172 138.084 34.634 138.084 36.3008 136.43C37.9676 134.776 41.2844 134.776 42.9512 136.43C44.618 138.084 47.9348 138.084 49.6016 136.43C51.2685 134.776 54.5852 134.776 56.252 136.43C57.9189 138.084 61.2357 138.084 62.9025 136.43C64.5693 134.776 67.8861 134.776 69.5529 136.43C71.2197 138.084 74.5365 138.084 76.2033 136.43C77.8701 134.776 81.1869 134.776 82.8537 136.43C84.5205 138.084 87.8373 138.084 89.5041 136.43C91.1709 134.776 94.4877 134.776 96.1545 136.43C97.8213 138.084 101.138 138.084 102.805 136.43C104.472 134.776 107.789 134.776 109.455 136.43C111.122 138.084 114.439 138.084 116.106 136.43C117.773 134.776 121.089 134.776 122.756 136.43C124.423 138.084 127.74 138.084 129.407 136.43C131.073 134.776 134.39 134.776 136.057 136.43C137.724 138.084 141.041 138.084 142.707 136.43C144.374 134.776 147.691 134.776 149.358 136.43" stroke="black"/>
</svg>
