<svg width="59" height="55" viewBox="0 0 59 55" fill="none" xmlns="http://www.w3.org/2000/svg">
<path d="M37.0072 54.9929C37.0072 48.954 42.0378 43.962 48.1075 43.962C54.1772 43.962 59 38.9629 59 32.9312C59 26.8994 54.0769 22 48 22C41.9231 22 37 26.8923 37 32.9312V55L37.0072 54.9929Z" fill="black"/>
<path d="M28.9906 42.9907C28.9906 35.1219 22.3593 28.6172 14.3583 28.6172C6.35733 28.6172 0 22.1031 0 14.2436C0 6.38411 6.48958 0 14.5 0C22.5104 0 29 6.37483 29 14.2436V43L28.9906 42.9907Z" fill="black"/>
</svg>
