<svg width="766" height="725" viewBox="0 0 766 725" fill="none" xmlns="http://www.w3.org/2000/svg">
<path d="M760.447 495.269C775.295 425.653 749.403 361.008 702.175 320.654C701.546 319.819 700.848 318.997 700.068 318.216L382.901 1C382.901 1 150.294 232.47 59.0005 324.269C58.4394 324.83 57.933 325.419 57.4541 326.022C22.4885 358.721 0.715422 405.36 1.00281 457.079C1.53653 552.685 78.5018 631.448 174.024 634.009C175.502 634.05 176.98 634.064 178.444 634.077C266.18 634.296 336.946 562.065 336.946 474.278C336.946 450.876 355.982 429.747 379.329 428.337C405.55 426.749 427.309 447.562 427.309 473.456C427.309 558.587 496.843 631.749 581.883 634.009C598.36 634.447 615.398 632.653 632.696 628.312C697.084 612.168 746.597 560.216 760.447 495.256V495.269Z" fill="black" stroke="black" stroke-miterlimit="10"/>
<path d="M382.818 500.144C396.423 500.144 407.452 489.109 407.452 475.496C407.452 461.884 396.423 450.849 382.818 450.849C369.214 450.849 358.185 461.884 358.185 475.496C358.185 489.109 369.214 500.144 382.818 500.144Z" fill="black" stroke="black" stroke-miterlimit="10"/>
<path d="M382.818 497.406V683.332" stroke="black" stroke-miterlimit="10"/>
<path d="M382.818 590.519C382.818 663.764 290.225 723.152 176.857 723.152V724.028H588.78V723.152C475.412 723.152 382.818 663.764 382.818 590.519Z" fill="black"/>
</svg>
