<svg width="128" height="200" viewBox="0 0 128 200" fill="none" xmlns="http://www.w3.org/2000/svg">
<path d="M51.1091 160.892C51.1091 139.856 68.6685 122.487 89.9362 122.487C111.204 122.487 128 105.118 128 84.0816C128 63.045 110.768 46 89.5 46C68.2324 46 51 63.045 51 84.0816V161L51.1091 160.892Z" fill="black"/>
<path d="M51 89C51 74.9497 39.3839 63.2227 25.2234 63.2227C11.0629 63.2227 0 51.6063 0 37.4454C0 23.2845 11.3947 12 25.4446 12C39.4945 12 50.8893 23.3951 50.8893 37.4454V88.8894L51 89Z" fill="black"/>
<path d="M48.3333 3C48.3333 4.47276 49.5272 5.66667 51 5.66667C52.4728 5.66667 53.6667 4.47276 53.6667 3C53.6667 1.52724 52.4728 0.333333 51 0.333333C49.5272 0.333333 48.3333 1.52724 48.3333 3ZM50.5 3L50.5 200L51.5 200L51.5 3L50.5 3Z" fill="black"/>
</svg>
